<svg xmlns="http://www.w3.org/2000/svg" version="1.1" viewBox="0 0 304.32 285.95959595959596" style="max-height: 500px" width="304.32" height="285.95959595959596">
<path transform="translate(0,0)" fill="#FDFDFD" d="M0 0 C316.8 0 633.6 0 960 0 C960 94.05 960 188.1 960 285 C643.2 285 326.4 285 0 285 C0 190.95 0 96.9 0 0 Z"/>
<path transform="translate(180,5)" fill="#C9373C" d="M0 0 C0.92554688 0.26554688 1.85109375 0.53109375 2.8046875 0.8046875 C17.90504165 6.00317008 30.41011123 18.32317073 38 32 C46.75822689 50.29644855 48.29711797 69.81669696 42 89 C38.30651709 98.76134769 32.50112265 106.95099101 26 115 C27.11375 115.12375 28.2275 115.2475 29.375 115.375 C34.31492396 116.00765693 39.15003452 116.86550515 44 118 C45.32257813 118.2784375 45.32257813 118.2784375 46.671875 118.5625 C65.61078259 123.58497273 80.99035993 139.89253322 91 156 C95.80328021 164.48498231 97.858216 173.58244977 100 183 C100.1757959 183.65154053 100.3515918 184.30308105 100.53271484 184.97436523 C103.55275108 198.06592251 100.30947986 211.64962409 96 224 C95.62746094 225.10085937 95.25492187 226.20171875 94.87109375 227.3359375 C91.82814313 235.41513043 87.17728548 242.17619686 82 249 C81.40703125 249.80308594 80.8140625 250.60617188 80.203125 251.43359375 C66.77214278 268.10346327 44.68782724 276.49875987 24 279 C2.65227392 281.08721579 -18.68463058 273.23471462 -35.3203125 260.20703125 C-43.05034271 253.84046118 -48.75476636 246.50417698 -54 238 C-54 237.34 -54 236.68 -54 236 C-54.66 236 -55.32 236 -56 236 C-56.98172849 233.33388455 -57.95550102 230.66533109 -58.91796875 227.9921875 C-59.55096533 226.24173485 -60.19447319 224.49489768 -60.86328125 222.7578125 C-65.64502795 209.76127019 -66.47118793 194.59153363 -64 181 C-63.52046875 180.05060547 -63.52046875 180.05060547 -63.03125 179.08203125 C-61.90522689 176.80865884 -61.38566445 174.7303702 -60.875 172.25 C-60.70742187 171.45078125 -60.53984375 170.6515625 -60.3671875 169.828125 C-60.24601562 169.22484375 -60.12484375 168.6215625 -60 168 C-60.54785156 168.44730469 -61.09570312 168.89460937 -61.66015625 169.35546875 C-77.53988516 181.46537583 -98.58976438 183.71610307 -117.98828125 181.6875 C-124.23675428 180.57134533 -130.10685267 178.30601417 -136 176 C-137.134375 175.608125 -138.26875 175.21625 -139.4375 174.8125 C-156.50854137 166.12723334 -170.43468559 150.0727233 -176.68457031 132.02294922 C-182.77898165 112.59291739 -181.4304941 92.04345715 -172.8125 73.625 C-164.5738588 58.3221622 -150.04267096 42.81059536 -132.96484375 37.68359375 C-129.00805509 36.62120905 -125.0167387 35.802503 -121 35 C-120.09378906 34.77570312 -119.18757813 34.55140625 -118.25390625 34.3203125 C-107.30939369 31.69650489 -96.60384583 32.36439572 -86 36 C-85.82984375 35.13761719 -85.82984375 35.13761719 -85.65625 34.2578125 C-81.9966651 21.66709778 -68.78503554 10.67889445 -57.95166016 4.04833984 C-52.3394708 1.03373626 -46.15017878 -0.47830628 -40 -2 C-39.33637451 -2.18256348 -38.67274902 -2.36512695 -37.98901367 -2.55322266 C-25.00258913 -6.05766931 -12.61785087 -3.69221234 0 0 Z"/>
<path transform="translate(172.99609375,15.22265625)" fill="#DE878A" d="M0 0 C2.79659697 0.72369674 5.52422164 1.17219004 8.37890625 1.58984375 C16.09280116 3.10261731 20.29014811 8.94716921 25.00390625 14.77734375 C27.47385388 17.30904007 29.94299406 19.7251333 32.62890625 22.02734375 C35.8123662 25.71345528 36.80685775 29.11088349 38.00390625 33.77734375 C38.28363281 34.81117187 38.56335938 35.845 38.8515625 36.91015625 C42.98753909 53.8003304 42.18994864 70.05412338 33.50390625 85.46484375 C31.3239205 89.0469567 29.04562187 91.89702529 26.00390625 94.77734375 C25.30265625 95.54046875 24.60140625 96.30359375 23.87890625 97.08984375 C16.71834667 103.78341032 9.36187384 107.94719854 0.00390625 110.77734375 C-1.23359375 111.18984375 -2.47109375 111.60234375 -3.74609375 112.02734375 C-14.53507722 114.47637681 -25.52456965 112.74398127 -35.99609375 109.77734375 C-36.12564453 110.79441406 -36.12564453 110.79441406 -36.2578125 111.83203125 C-38.22655585 124.87269823 -44.95643051 136.6124772 -54.80859375 145.46484375 C-57.99609375 147.77734375 -57.99609375 147.77734375 -60.99609375 147.77734375 C-61.32609375 148.76734375 -61.65609375 149.75734375 -61.99609375 150.77734375 C-64.09371465 152.12089836 -66.08468836 153.24765585 -68.30859375 154.33984375 C-68.93145264 154.65066895 -69.55431152 154.96149414 -70.19604492 155.28173828 C-75.27756885 157.69328711 -80.16246792 158.85172708 -85.765625 159.48828125 C-87.96477972 159.54257525 -87.96477972 159.54257525 -88.99609375 160.77734375 C-106.61395621 162.42167758 -122.68545263 158.11846137 -136.99609375 147.77734375 C-137.80949219 147.225625 -138.62289062 146.67390625 -139.4609375 146.10546875 C-143.37852418 143.35678225 -145.7011371 141.03940611 -147.99609375 136.77734375 C-148.84171875 135.95234375 -149.68734375 135.12734375 -150.55859375 134.27734375 C-153.01381225 131.75917093 -153.87728802 130.04769895 -154.99609375 126.77734375 C-155.65609375 125.78734375 -156.31609375 124.79734375 -156.99609375 123.77734375 C-157.62890625 121.875 -157.62890625 121.875 -158.12109375 119.83984375 C-158.28867188 119.17082031 -158.45625 118.50179687 -158.62890625 117.8125 C-158.99609375 115.77734375 -158.99609375 115.77734375 -158.99609375 111.77734375 C-159.65609375 111.77734375 -160.31609375 111.77734375 -160.99609375 111.77734375 C-164.37511725 101.27533871 -163.81166472 90.65175369 -161.24609375 80.02734375 C-161.08931152 79.36033447 -160.9325293 78.6933252 -160.77099609 78.00610352 C-159.65190212 73.82961906 -158.16553429 71.64286533 -154.99609375 68.77734375 C-153.79916021 66.77979724 -153.79916021 66.77979724 -152.80859375 64.65234375 C-147.51422244 54.79441926 -138.71537495 45.54357769 -127.99609375 41.77734375 C-127.23296875 41.28234375 -126.46984375 40.78734375 -125.68359375 40.27734375 C-122.25087962 38.36141028 -118.80537091 37.56930687 -114.99609375 36.77734375 C-113.80886719 36.49697266 -113.80886719 36.49697266 -112.59765625 36.2109375 C-100.76721212 33.67076706 -88.75215474 34.07955421 -76.99609375 36.77734375 C-75.33014584 37.11425093 -73.66366555 37.44856849 -71.99609375 37.77734375 C-71.93292969 37.14828125 -71.86976562 36.51921875 -71.8046875 35.87109375 C-70.75054113 28.50316543 -68.13170797 24.96350535 -62.99609375 19.77734375 C-61.70154632 18.23809528 -60.40993386 16.69637421 -59.12109375 15.15234375 C-54.41671429 9.88270939 -49.38626267 5.61001682 -42.43359375 3.90234375 C-41.62921875 3.86109375 -40.82484375 3.81984375 -39.99609375 3.77734375 C-39.99609375 3.11734375 -39.99609375 2.45734375 -39.99609375 1.77734375 C-26.64765042 -3.01440514 -13.79968167 -3.67427107 0 0 Z"/>
<path transform="translate(0,122)" fill="#FEFDFD" d="M0 0 C2.26340033 3.39510049 2.89536255 6.53130143 3.75 10.4375 C6.51046234 22.05395485 11.33556594 30.8177236 19.2421875 39.8203125 C21 42 21 42 21 44 C21.54269531 44.23203125 22.08539062 44.4640625 22.64453125 44.703125 C25.66618053 46.36678596 28.05283101 48.52351916 30.6875 50.75 C38.05922896 56.67216568 45.98645704 59.45930164 55 62 C56.32257812 62.39832031 56.32257812 62.39832031 57.671875 62.8046875 C74.67570994 67.08496319 94.1298042 63.64710812 110 57 C112.38219488 55.5133145 114.47381684 53.98431505 116.58203125 52.13671875 C118 51 118 51 120 51 C119.69240822 52.97993541 119.3787932 54.95893599 119.0625 56.9375 C118.88847656 58.03964844 118.71445313 59.14179688 118.53515625 60.27734375 C118 63 118 63 117 64 C114.03347055 81.13994792 117.01614897 97.20717825 122.7578125 113.359375 C124 117 124 117 124 119 C124.66 119 125.32 119 126 119 C127.04174694 120.54287884 128.0062759 122.13800326 128.9375 123.75 C138.57896395 139.17238278 152.3153272 151.02688268 170 156 C171.37661561 156.44564724 172.75288943 156.89235103 174.12890625 157.33984375 C186.50394666 161.16334809 198.11503147 161.59508523 211 161 C210.67 161.66 210.34 162.32 210 163 C140.7 163 71.4 163 0 163 C0 109.21 0 55.42 0 0 Z"/>
<path transform="translate(599.1875,78.8125)" fill="#060606" d="M0 0 C1.21913086 -0.01836914 1.21913086 -0.01836914 2.46289062 -0.03710938 C15.64345671 -0.06856657 27.0415898 3.62013337 36.62109375 12.83984375 C48.67099809 25.74892131 49.43019243 42.95802602 48.94873047 59.70751953 C48.6681614 64.81508338 47.53115289 69.39336298 45.8125 74.1875 C45.48378906 75.18910156 45.15507813 76.19070312 44.81640625 77.22265625 C40.47882614 89.09471806 32.11482181 97.78751911 20.71484375 103.1796875 C7.27347527 108.61839151 -11.02940543 108.27492871 -24.30078125 102.66796875 C-36.14310832 96.59456962 -41.90216867 87.60875024 -46.1875 75.1875 C-51.23523195 58.98533939 -49.82837966 39.22917058 -42.6796875 23.96875 C-37.81900248 14.83518374 -30.60584818 6.8622203 -20.65234375 3.2734375 C-19.81832031 3.03882812 -18.98429688 2.80421875 -18.125 2.5625 C-17.28839844 2.32273437 -16.45179688 2.08296875 -15.58984375 1.8359375 C-14.79707031 1.62195313 -14.00429688 1.40796875 -13.1875 1.1875 C-12.56520508 1.01259033 -11.94291016 0.83768066 -11.30175781 0.6574707 C-7.57125838 -0.17176849 -3.80664398 0.0029486 0 0 Z"/>
<path transform="translate(225,157)" fill="#FEFDFD" d="M0 0 C0 0.66 0 1.32 0 2 C0.54914063 2.06574219 1.09828125 2.13148438 1.6640625 2.19921875 C8.9719781 4.70444065 15.11340944 13.49647225 18.5 20.125 C19.35929808 22.07208004 20.19544764 24.02966769 21 26 C21.50660156 27.051875 21.50660156 27.051875 22.0234375 28.125 C26.2104785 37.95878436 25.20700845 50.65246196 21.875 60.5625 C19.55810645 66.22383594 16.73139106 71.16524062 13 76 C12.2575 77.03125 11.515 78.0625 10.75 79.125 C0.62673919 89.70840903 -12.83639402 94.91613043 -27.3125 95.3125 C-43.37272063 94.99466094 -55.94640006 88.46375207 -67 77 C-71 72.13178295 -71 72.13178295 -71 69 C-71.66 69 -72.32 69 -73 69 C-73.67184618 66.89748139 -74.33730968 64.79292237 -75 62.6875 C-75.37125 61.51574219 -75.7425 60.34398437 -76.125 59.13671875 C-77 56 -77 56 -77 53 C-77.66 53 -78.32 53 -79 53 C-79.67873366 36.03165855 -77.3457977 21.71657353 -65.5859375 8.49609375 C-46.95128494 -9.08290115 -22.22138395 -11.93370619 0 0 Z"/>
<path transform="translate(214.03125,132.04296875)" fill="#DE8789" d="M0 0 C3.69263734 1.19038967 7.11267304 1.65459384 10.96875 1.95703125 C10.96875 2.61703125 10.96875 3.27703125 10.96875 3.95703125 C11.87625 4.22515625 12.78375 4.49328125 13.71875 4.76953125 C16.77110404 5.88481446 18.4259937 7.03070072 20.96875 8.95703125 C22 9.32828125 23.03125 9.69953125 24.09375 10.08203125 C29.6538001 12.33481017 33.70696886 16.86831736 37.96875 20.95703125 C38.81759766 21.72853516 38.81759766 21.72853516 39.68359375 22.515625 C42.30083046 24.95079307 43.12264588 26.57261476 43.96875 29.95703125 C45.11923828 30.86388672 45.11923828 30.86388672 46.29296875 31.7890625 C50.55669417 35.95253645 51.11829094 42.0276045 52.28125 47.64453125 C52.53688721 48.85681396 52.79252441 50.06909668 53.0559082 51.31811523 C56.98497898 71.02888819 55.40021021 88.02113469 45.96875 105.95703125 C45.30875 105.95703125 44.64875 105.95703125 43.96875 105.95703125 C43.845 106.55515625 43.72125 107.15328125 43.59375 107.76953125 C42.96875 109.95703125 42.96875 109.95703125 40.96875 112.95703125 C40.30875 112.95703125 39.64875 112.95703125 38.96875 112.95703125 C38.88367188 113.53195313 38.79859375 114.106875 38.7109375 114.69921875 C37.75610447 117.60392133 36.28670946 118.96939998 34.09375 121.08203125 C33.39507812 121.76523438 32.69640625 122.4484375 31.9765625 123.15234375 C27.74364177 126.95703125 27.74364177 126.95703125 23.96875 126.95703125 C23.63875 127.94703125 23.30875 128.93703125 22.96875 129.95703125 C20.75390625 131.125 20.75390625 131.125 18.03125 132.14453125 C17.13535156 132.48871094 16.23945313 132.83289063 15.31640625 133.1875 C12.96875 133.95703125 12.96875 133.95703125 10.96875 133.95703125 C10.96875 134.61703125 10.96875 135.27703125 10.96875 135.95703125 C4.592987 137.88430562 -1.47565246 139.30508315 -8.1328125 139.74609375 C-10.04040081 139.75795037 -10.04040081 139.75795037 -11.03125 140.95703125 C-18.05304986 141.58726144 -24.61303492 140.51335827 -31.40625 138.83203125 C-32.78151855 138.49534424 -32.78151855 138.49534424 -34.18457031 138.15185547 C-49.48840048 134.21356879 -60.22649448 126.18642781 -71.03125 114.95703125 C-71.98715411 113.99627484 -72.94511044 113.03755011 -73.90625 112.08203125 C-77.15608283 108.83219842 -78.62792316 106.58479773 -80.18359375 102.20703125 C-81.00321088 100.03145766 -81.95821645 97.98693014 -82.96875 95.89453125 C-87.15113005 86.44784271 -89.38408734 77.06187156 -89.40625 66.76953125 C-89.40786133 66.05087891 -89.40947266 65.33222656 -89.41113281 64.59179688 C-89.33054556 60.82747657 -88.88959638 58.21089057 -87.03125 54.95703125 C-86.48555436 52.54384387 -86.09114756 50.12863865 -85.69140625 47.6875 C-84.17592978 41.41934585 -81.20277352 36.29611422 -77.46875 31.14453125 C-76.81447021 30.23767578 -76.81447021 30.23767578 -76.14697266 29.3125 C-69.95586648 20.9304215 -62.64535122 13.82411594 -54.03125 7.95703125 C-53.14308594 7.28929687 -52.25492188 6.6215625 -51.33984375 5.93359375 C-47.39399024 3.57633061 -43.80109704 2.6454201 -39.34375 1.70703125 C-38.58513672 1.53429687 -37.82652344 1.3615625 -37.04492188 1.18359375 C-33.98701044 0.50345811 -31.17253441 -0.04296875 -28.03125 -0.04296875 C-28.03125 -0.70296875 -28.03125 -1.36296875 -28.03125 -2.04296875 C-18.16454934 -4.27385879 -9.48747591 -3.25844136 0 0 Z M-55.03125 33.95703125 C-61.93733961 42.28013709 -68.20821522 53.18190103 -68.12890625 64.28515625 C-68.12568359 65.084375 -68.12246094 65.88359375 -68.11914062 66.70703125 C-68.11076172 67.53203125 -68.10238281 68.35703125 -68.09375 69.20703125 C-68.08923828 70.0475 -68.08472656 70.88796875 -68.08007812 71.75390625 C-68.06832961 73.82164526 -68.05039522 75.88934749 -68.03125 77.95703125 C-67.37125 77.95703125 -66.71125 77.95703125 -66.03125 77.95703125 C-65.84949219 79.06111328 -65.84949219 79.06111328 -65.6640625 80.1875 C-65.49648437 81.16332031 -65.32890625 82.13914062 -65.15625 83.14453125 C-64.99382812 84.10746094 -64.83140625 85.07039063 -64.6640625 86.0625 C-64.05085483 88.86735729 -63.17458657 91.32927872 -62.03125 93.95703125 C-61.37125 93.95703125 -60.71125 93.95703125 -60.03125 93.95703125 C-59.78375 94.68019531 -59.53625 95.40335937 -59.28125 96.1484375 C-54.13086037 107.7207192 -42.64290052 113.745687 -31.453125 118.1953125 C-18.55034079 122.25344624 -4.12211143 120.33455687 7.9296875 114.53125 C10.37326964 113.11133065 12.67434102 111.60518893 14.96875 109.95703125 C16.515625 108.87421875 16.515625 108.87421875 18.09375 107.76953125 C26.24673434 100.49420528 30.59729915 91.14373254 33.96875 80.95703125 C34.29875 79.96703125 34.62875 78.97703125 34.96875 77.95703125 C36.14799155 63.9404766 34.44796131 51.29515488 26.15625 39.51953125 C25.12734358 38.30280857 24.06130675 37.11693739 22.96875 35.95703125 C22.21851563 35.14105469 21.46828125 34.32507813 20.6953125 33.484375 C17.46101856 30.08222338 17.46101856 30.08222338 13.96875 26.95703125 C12.97875 26.95703125 11.98875 26.95703125 10.96875 26.95703125 C10.96875 26.29703125 10.96875 25.63703125 10.96875 24.95703125 C8.90947044 23.9711097 6.84618312 22.99355631 4.78125 22.01953125 C3.63269531 21.47425781 2.48414063 20.92898437 1.30078125 20.3671875 C-17.43023305 12.43999387 -41.41515338 19.6005795 -55.03125 33.95703125 Z"/>
<path transform="translate(683.98828125,80.56640625)" fill="#050505" d="M0 0 C1.34217842 -0.00786278 1.34217842 -0.00786278 2.71147156 -0.0158844 C4.61208053 -0.02231413 6.51272925 -0.02095534 8.41333008 -0.01245117 C11.27566006 -0.00404879 14.13591978 -0.0325114 16.99804688 -0.06445312 C33.44143454 -0.12821743 47.89844634 2.19043746 60.69921875 13.43359375 C68.51451435 21.84292607 72.03727595 32.12453228 72.01171875 43.43359375 C72.06836269 45.0131408 72.12854497 46.59256316 72.19140625 48.171875 C72.66658101 63.51885365 69.67992583 75.19313287 61.26171875 88.12109375 C49.29275129 100.42253253 33.6479696 102.35853708 17.38671875 102.671875 C15.05547486 102.69906219 12.72443794 102.71692662 10.39306641 102.72875977 C8.79108956 102.74042066 7.18915557 102.7610871 5.58740234 102.7902832 C3.24941168 102.83271885 0.91254516 102.84907574 -1.42578125 102.859375 C-2.49916748 102.88563713 -2.49916748 102.88563713 -3.59423828 102.91242981 C-8.45936234 102.89102627 -8.45936234 102.89102627 -10.67520142 100.97467041 C-12.65612737 97.14117563 -12.40619812 93.56232357 -12.37646484 89.30639648 C-12.3817218 88.38404205 -12.38697876 87.46168762 -12.39239502 86.51138306 C-12.40559709 83.46314554 -12.39685681 80.41543031 -12.38671875 77.3671875 C-12.38873925 75.25016683 -12.39165049 73.13314683 -12.39541626 71.01612854 C-12.39983975 66.58010224 -12.39340699 62.14425719 -12.37939453 57.70825195 C-12.36229231 52.01606309 -12.37215039 46.32429825 -12.39011192 40.6321249 C-12.4009401 36.26130463 -12.39750803 31.89058531 -12.38972855 27.51976204 C-12.38772441 25.4205527 -12.39019327 23.32133426 -12.39716721 21.22213554 C-12.40476685 18.29164129 -12.39319869 15.36183905 -12.37646484 12.43139648 C-12.38253754 11.56014633 -12.38861023 10.68889618 -12.39486694 9.79124451 C-12.33236796 3.89788845 -12.33236796 3.89788845 -10.71283913 1.71257114 C-7.62003096 -0.58113658 -3.71042143 -0.01267602 0 0 Z"/>
<path transform="translate(70.1875,68.8671875)" fill="#FEFDFD" d="M0 0 C0.78117187 -0.00128906 1.56234375 -0.00257812 2.3671875 -0.00390625 C3.17414063 -0.00003906 3.98109375 0.00382812 4.8125 0.0078125 C5.61945313 0.00394531 6.42640625 0.00007813 7.2578125 -0.00390625 C8.03898437 -0.00261719 8.82015625 -0.00132813 9.625 0 C10.68654297 0.00169189 10.68654297 0.00169189 11.76953125 0.00341797 C13.88962733 0.13769748 15.77207563 0.55564752 17.8125 1.1328125 C17.8125 1.7928125 17.8125 2.4528125 17.8125 3.1328125 C19.070625 3.4628125 20.32875 3.7928125 21.625 4.1328125 C32.5328123 7.84318645 39.63887696 15.02456532 44.8125 25.1328125 C45.36164063 26.1846875 45.91078125 27.2365625 46.4765625 28.3203125 C48.4100698 32.96136188 48.25092704 37.61243192 48.1875 42.5703125 C48.19910156 43.47330078 48.21070312 44.37628906 48.22265625 45.30664062 C48.17490475 56.29744442 43.67442637 66.23354104 36.25 74.3203125 C25.85127587 84.2060066 13.28804018 86.73359283 -0.46875 86.4453125 C-12.20171049 85.88748554 -20.46860685 80.20572325 -28.375 71.9453125 C-37.56244685 61.29293811 -38.88646562 49.93945837 -38.36669922 36.48242188 C-37.43974282 24.32843229 -30.61285689 15.63909436 -21.6953125 7.9609375 C-15.39773699 3.37018152 -7.86870211 0.01254119 0 0 Z"/>
<path transform="translate(0,0)" fill="#FEFDFD" d="M0 0 C53.46 0 106.92 0 162 0 C162 0.33 162 0.66 162 1 C161.24460938 1.00257813 160.48921875 1.00515625 159.7109375 1.0078125 C143.45679669 1.57880105 126.64156435 5.38420251 114 16 C113.11183594 16.71285156 112.22367187 17.42570312 111.30859375 18.16015625 C103.77585126 24.52537979 98.03068747 31.990228 94 41 C93.36835937 40.855625 92.73671875 40.71125 92.0859375 40.5625 C79.93052592 38.04033967 69.29769144 38.66519532 57.25 41.1875 C56.2919043 41.38351807 55.33380859 41.57953613 54.34667969 41.78149414 C35.49357381 46.02002872 20.89101192 58.52885593 10.625 74.5625 C5.27433891 83.6427308 3.23194876 92.7583628 1 103 C0.67 103 0.34 103 0 103 C0 69.01 0 35.02 0 0 Z"/>
<path transform="translate(812.4375,79.5625)" fill="#060606" d="M0 0 C0.87205078 -0.03287109 1.74410156 -0.06574219 2.64257812 -0.09960938 C3.90038086 -0.11024414 3.90038086 -0.11024414 5.18359375 -0.12109375 C5.9511499 -0.13454834 6.71870605 -0.14800293 7.50952148 -0.16186523 C9.5625 0.4375 9.5625 0.4375 11.13208008 2.45556641 C12.90067397 6.14247643 14.39438735 9.87922651 15.828125 13.70703125 C16.13854736 14.5242717 16.44896973 15.34151215 16.76879883 16.18351746 C17.78803444 18.87060318 18.80031455 21.56025153 19.8125 24.25 C20.5214396 26.12318706 21.23075462 27.99623208 21.94042969 29.86914062 C27.56150786 44.71956872 33.13800374 59.58715333 38.68847656 74.46411133 C39.27658126 76.03861585 39.86479344 77.61308023 40.453125 79.1875 C40.72834488 79.92510559 41.00356476 80.66271118 41.28712463 81.42266846 C43.06418411 86.1661598 44.91895116 90.869757 46.89428711 95.53491211 C47.84299316 98.23614202 47.92425305 100.61582621 47.5625 103.4375 C45.57104756 105.42895244 41.95719455 104.8015588 39.25 104.875 C38.57259766 104.92076172 37.89519531 104.96652344 37.19726562 105.01367188 C35.19921875 105.05859375 35.19921875 105.05859375 31.5625 104.4375 C27.73373653 100.26066712 26.10226832 95.04168745 24.3125 89.75 C24.044375 88.99138672 23.77625 88.23277344 23.5 87.45117188 C22.4239128 84.34095045 21.5625 81.75148446 21.5625 78.4375 C7.0425 78.4375 -7.4775 78.4375 -22.4375 78.4375 C-23.0975 81.4075 -23.7575 84.3775 -24.4375 87.4375 C-25.20087167 89.91152965 -26.01032944 92.37202795 -26.875 94.8125 C-27.28621094 95.99585938 -27.69742188 97.17921875 -28.12109375 98.3984375 C-30.12147757 103.01653427 -30.12147757 103.01653427 -32.4375 104.4375 C-35.79296875 104.73046875 -35.79296875 104.73046875 -39.625 104.625 C-40.89730469 104.59792969 -42.16960938 104.57085937 -43.48046875 104.54296875 C-44.45628906 104.50816406 -45.43210937 104.47335938 -46.4375 104.4375 C-47.58850936 100.31927821 -47.23938009 97.87788879 -45.8125 93.875 C-45.43480469 92.8128125 -45.05710937 91.750625 -44.66796875 90.65625 C-43.15074055 86.6873737 -41.51020207 82.78087276 -39.84765625 78.87109375 C-35.05170898 67.19342714 -30.96487404 55.2125499 -26.83447266 43.28710938 C-24.24457289 35.81856122 -21.46726989 28.45266118 -18.5 21.125 C-16.28026524 15.63563729 -14.20754227 10.11801876 -12.296875 4.51171875 C-9.96343526 -1.12035625 -5.27208866 0.03491449 0 0 Z"/>
<path transform="translate(949.94140625,79.90234375)" fill="#040404" d="M0 0 C1.79244141 0.01740234 1.79244141 0.01740234 3.62109375 0.03515625 C5.41740234 0.04869141 5.41740234 0.04869141 7.25 0.0625 C8.17683594 0.07410156 9.10367188 0.08570312 10.05859375 0.09765625 C10.10485611 13.23186438 10.14043184 26.36605326 10.16221809 39.50032616 C10.17267236 45.59855392 10.18686147 51.69672611 10.20947266 57.79492188 C10.23114252 63.67579319 10.24314998 69.55661092 10.24834824 75.43751907 C10.25205455 77.68549061 10.25929163 79.9334591 10.27005386 82.18140793 C10.28449095 85.32071104 10.28657496 88.45979034 10.28564453 91.59912109 C10.29283508 92.53635513 10.30002563 93.47358917 10.30743408 94.43922424 C10.30468475 95.29180313 10.30193542 96.14438202 10.29910278 97.02279663 C10.30094637 97.76576178 10.30278996 98.50872692 10.30468941 99.27420616 C10.05859375 101.09765625 10.05859375 101.09765625 8.05859375 103.09765625 C4.95650632 103.59587992 1.8211974 103.51426984 -1.31640625 103.53515625 C-2.18007813 103.56802734 -3.04375 103.60089844 -3.93359375 103.63476562 C-4.76890625 103.64185547 -5.60421875 103.64894531 -6.46484375 103.65625 C-7.60832275 103.67643188 -7.60832275 103.67643188 -8.77490234 103.69702148 C-12.76559225 102.59299357 -14.37685942 99.03756716 -16.41088867 95.65112305 C-16.86826416 94.79172119 -17.32563965 93.93231934 -17.796875 93.046875 C-18.32829102 92.05437744 -18.85970703 91.06187988 -19.40722656 90.03930664 C-19.97538086 88.96543701 -20.54353516 87.89156738 -21.12890625 86.78515625 C-21.73186523 85.6552124 -22.33482422 84.52526855 -22.95605469 83.36108398 C-24.60756414 80.26559918 -26.25245648 77.16664156 -27.8961792 74.0670166 C-29.32385414 71.3770686 -30.7556381 68.68931705 -32.18745422 66.00157166 C-40.14878424 51.05628219 -48.05459349 36.08260048 -55.94140625 21.09765625 C-56.27140625 48.15765625 -56.60140625 75.21765625 -56.94140625 103.09765625 C-59.68646088 104.47018356 -61.94468037 104.2299488 -65.00390625 104.22265625 C-66.63005859 104.22652344 -66.63005859 104.22652344 -68.2890625 104.23046875 C-70.94140625 104.09765625 -70.94140625 104.09765625 -71.94140625 103.09765625 C-72.03674278 99.99258375 -72.06691751 96.90979167 -72.05493164 93.80444336 C-72.05507767 92.82894028 -72.05522369 91.85343719 -72.05537415 90.84837341 C-72.05467458 87.60722672 -72.04688016 84.36613671 -72.0390625 81.125 C-72.03719847 78.88440482 -72.0357745 76.64380923 -72.03477478 74.4032135 C-72.03094838 68.49306115 -72.02111705 62.5829332 -72.0100708 56.67279053 C-71.99985931 50.64709808 -71.99527772 44.62140172 -71.99023438 38.59570312 C-71.97949489 26.76301009 -71.96241701 14.93033519 -71.94140625 3.09765625 C-67.49981219 0.77206829 -63.96124643 0.69599244 -59.00390625 0.66015625 C-57.80604492 0.61084961 -57.80604492 0.61084961 -56.58398438 0.56054688 C-52.63056496 0.52451737 -50.53722096 0.68674955 -47.22265625 2.97265625 C-44.09124248 7.26226415 -41.7465938 11.7903293 -39.37890625 16.53515625 C-38.31177077 18.62856099 -37.24271405 20.72098732 -36.171875 22.8125 C-35.36242432 24.39780518 -35.36242432 24.39780518 -34.53662109 26.01513672 C-32.65050596 29.65977855 -30.69252168 33.25965614 -28.70799255 36.85142517 C-23.1478598 46.91970109 -17.80978088 57.08881211 -12.55078125 67.31640625 C-11.80854848 68.7575475 -11.06619894 70.19862861 -10.32373047 71.63964844 C-8.52827929 75.12496123 -6.73439683 78.61107703 -4.94140625 82.09765625 C-4.93109879 81.08510269 -4.92079132 80.07254913 -4.91017151 79.02931213 C-4.8126089 69.50821621 -4.70989154 59.98718815 -4.60206699 50.46620274 C-4.5467946 45.570835 -4.49336784 40.67546135 -4.4440918 35.7800293 C-4.39651174 31.05972349 -4.3441715 26.33949271 -4.2884655 21.61927605 C-4.26801303 19.81428828 -4.24930484 18.0092799 -4.23233223 16.20425606 C-4.20835196 13.68500409 -4.17828914 11.16589527 -4.14672852 8.64672852 C-4.14097305 7.89291397 -4.13521759 7.13909943 -4.12928772 6.36244202 C-4.04001268 0.13413057 -4.04001268 0.13413057 0 0 Z"/>
<path transform="translate(177.69140625,38.765625)" fill="#FEFEFE" d="M0 0 C8.03101453 6.08011234 14.46616656 13.07818543 16.30859375 23.234375 C17.40882058 34.57621949 15.87108517 44.7714291 9.05859375 54.109375 C3.01856285 61.24876912 -5.15509158 67.45086952 -14.69921875 68.44311523 C-27.04050163 69.02517067 -35.95226172 68.31142138 -46.01953125 60.40625 C-53.78208391 53.33370202 -57.97415305 43.88139756 -58.9453125 33.52734375 C-59.37164107 23.03415992 -57.3142161 13.70814568 -50.31640625 5.671875 C-37.11373267 -7.55219675 -15.98684335 -10.48774048 0 0 Z"/>
<path transform="translate(454.625,79.875)" fill="#030303" d="M0 0 C1.16789062 -0.00257812 2.33578125 -0.00515625 3.5390625 -0.0078125 C6.375 0.125 6.375 0.125 7.375 1.125 C7.46768999 2.47594982 7.49247326 3.83167091 7.48852539 5.18579102 C7.48840454 6.05868774 7.48828369 6.93158447 7.48815918 7.83093262 C7.48048523 9.21592957 7.48048523 9.21592957 7.47265625 10.62890625 C7.47164917 11.4732019 7.47064209 12.31749756 7.46960449 13.18737793 C7.4643557 16.35409902 7.45039456 19.52080081 7.4375 22.6875 C7.416875 29.761875 7.39625 36.83625 7.375 44.125 C22.885 44.125 38.395 44.125 54.375 44.125 C54.33539384 30.01865776 54.33539384 30.01865776 54.28491211 15.91235352 C54.28199304 14.15120504 54.27944446 12.39005589 54.27734375 10.62890625 C54.27222778 9.70557495 54.26711182 8.78224365 54.26184082 7.83093262 C54.26165955 6.52158752 54.26165955 6.52158752 54.26147461 5.18579102 C54.259254 4.42412125 54.25703339 3.66245148 54.25474548 2.87770081 C54.375 1.125 54.375 1.125 55.375 0.125 C57.51894519 0.0258243 59.66626732 -0.0047015 61.8125 0 C63.57400391 -0.00386719 63.57400391 -0.00386719 65.37109375 -0.0078125 C68.375 0.125 68.375 0.125 70.375 1.125 C70.375 34.785 70.375 68.445 70.375 103.125 C67.50866205 104.55816898 65.00264499 104.25700361 61.8125 104.25 C60.04712891 104.25386719 60.04712891 104.25386719 58.24609375 104.2578125 C55.375 104.125 55.375 104.125 54.375 103.125 C54.28204185 101.68210213 54.25753487 100.23470215 54.26147461 98.78881836 C54.26159546 97.85501343 54.26171631 96.9212085 54.26184082 95.95910645 C54.26695679 94.97099976 54.27207275 93.98289307 54.27734375 92.96484375 C54.27835083 92.06157349 54.27935791 91.15830322 54.28039551 90.22766113 C54.28564488 86.83926126 54.29960602 83.45087941 54.3125 80.0625 C54.333125 72.493125 54.35375 64.92375 54.375 57.125 C38.865 57.125 23.355 57.125 7.375 57.125 C7.375 72.305 7.375 87.485 7.375 103.125 C4.65844597 104.48327701 2.46710594 104.2573445 -0.5625 104.25 C-1.62339844 104.25257813 -2.68429687 104.25515625 -3.77734375 104.2578125 C-6.625 104.125 -6.625 104.125 -9.625 103.125 C-9.625 69.465 -9.625 35.805 -9.625 1.125 C-6.23107349 -0.00630884 -3.57165128 -0.0079194 0 0 Z"/>
<path transform="translate(407,60)" fill="#060606" d="M0 0 C0.82628906 0.30421875 1.65257812 0.6084375 2.50390625 0.921875 C5.00279244 2.05180615 6.36202559 2.78779319 8 5 C8.66511882 9.40909408 8.46621741 13.5774098 8 18 C4.76120745 19.02809378 3.30810813 19.12150159 0.09765625 17.85546875 C-0.90394531 17.30503906 -1.90554688 16.75460938 -2.9375 16.1875 C-11.69691158 11.42916158 -20.54925371 8.82931014 -30.48046875 11.72265625 C-34.69461272 13.67555224 -37.46025888 16.03800385 -40 20 C-41.63812373 24.91437118 -42.03331595 29.45905915 -40.046875 34.34375 C-34.95470672 42.8892278 -26.4662379 47.09184085 -17.57421875 50.859375 C-4.20060066 56.78516633 9.14622343 63.76034817 15 78 C17.6499995 86.360321 16.5477364 96.09650183 13 104 C6.81209274 115.30257316 -1.8785567 120.41866448 -14 124 C-28.13862873 127.63702375 -45.44150433 125.30145097 -58 118 C-60.5625 115.9375 -60.5625 115.9375 -62 113 C-62.90556901 103.81113801 -62.90556901 103.81113801 -61 100 C-57.50337984 100.32780814 -55.23167728 101.3962926 -52.375 103.3125 C-41.59485199 110.19259446 -29.84927465 111.98700897 -17.30859375 109.45703125 C-11.6858477 107.52587938 -7.64335099 104.4936688 -4.6875 99.375 C-2.51872761 94.63025714 -2.16207107 90.13123488 -3 85 C-8.01775206 74.56307572 -19.72073617 68.93507366 -30.0625 65 C-42.25366922 60.28582363 -51.47508468 53.24965024 -57.08984375 41.296875 C-60.32100161 33.14270838 -60.25826186 23.21185636 -57.03125 15.0546875 C-52.61178214 6.24923259 -45.84088528 0.57694309 -36.625 -2.875 C-24.69778287 -5.98725822 -11.14414095 -5.15137486 0 0 Z"/>
<path transform="translate(617,97)" fill="#FCFCFC" d="M0 0 C7.71167543 5.6936669 11.33994308 13.72557434 13 23 C13.26661929 26.2974081 13.28678338 29.56826828 13.25 32.875 C13.23876099 34.20217041 13.23876099 34.20217041 13.22729492 35.55615234 C13.03268341 47.34373871 10.38078386 55.69869357 4.3125 65.8125 C-2.70652272 72.45211609 -11.23662765 74.32120511 -20.578125 74.20703125 C-28.58912653 73.72234737 -34.48360717 71.54698183 -40.3125 65.953125 C-47.88256685 57.19147355 -48.36230836 46.24826416 -48.375 35.1875 C-48.39949219 34.07568359 -48.42398438 32.96386719 -48.44921875 31.81835938 C-48.49165465 19.73120086 -45.00344008 10.11230184 -36.4921875 1.46875 C-26.90681523 -7.16310356 -10.73469141 -5.99515715 0 0 Z"/>
<path transform="translate(689,94)" fill="#F9F9F9" d="M0 0 C8.58 0 17.16 0 26 0 C26 0.66 26 1.32 26 2 C26.99 2.04125 27.98 2.0825 29 2.125 C36.35660681 3.20991373 41.34282837 8.95788324 45.67578125 14.58203125 C49.65594843 21.84965215 50.47729052 28.74857531 50.375 36.9375 C50.38660156 37.86240234 50.39820313 38.78730469 50.41015625 39.74023438 C50.36574468 50.30278623 47.59746931 59.65219969 40.54296875 67.65234375 C28.83186839 78.8505492 16.29186086 77 0 77 C0 51.59 0 26.18 0 0 Z"/>
<path transform="translate(811,98)" fill="#F7F7F7" d="M0 0 C3.39543414 2.66673648 4.31055478 6.19739527 5.55859375 10.16015625 C5.78901871 10.86466415 6.01944366 11.56917206 6.2568512 12.29502869 C6.99232611 14.54816801 7.71553379 16.80499963 8.4375 19.0625 C9.38989792 22.01323571 10.347655 24.96219161 11.30859375 27.91015625 C11.53831879 28.61741852 11.76804382 29.32468079 12.00473022 30.05337524 C13.59041074 34.88729998 15.34814138 39.6185777 17.32055664 44.31030273 C18 46 18 46 18 47 C6.78 47 -4.44 47 -16 47 C-14.12873146 39.51492584 -12.31892222 32.66019244 -9.5625 25.5625 C-7.04105214 18.92173698 -4.77066396 12.30332686 -2.82421875 5.46875 C-2 3 -2 3 0 0 Z"/>
<path transform="translate(89,50)" fill="#D56468" d="M0 0 C-3.82611874 1.26232562 -7.59179154 1.02928944 -11.5625 0.9375 C-22.92024623 0.81803943 -35.70944006 2.0007535 -45 9 C-45.80695312 9.31839844 -46.61390625 9.63679688 -47.4453125 9.96484375 C-59.11363916 14.69283544 -66.49643472 26.271852 -72 37 C-73 35 -73 35 -72.35546875 33.00390625 C-66.13982569 20.01134132 -54.46155869 8.57693146 -41 3 C-38.640625 2.5859375 -38.640625 2.5859375 -36.25 2.375 C-35.45078125 2.30023438 -34.6515625 2.22546875 -33.828125 2.1484375 C-33.22484375 2.09945312 -32.6215625 2.05046875 -32 2 C-32 1.34 -32 0.68 -32 0 C-21.95112316 -2.09585513 -9.60004683 -4.59053472 0 0 Z"/>
<path transform="translate(210,45)" fill="#D35D61" d="M0 0 C4.41589916 3.81098147 4.48394486 8.41036909 5 14 C5.16743959 17.68798277 5.22681408 21.37099196 5.25 25.0625 C5.25926514 25.98393799 5.26853027 26.90537598 5.27807617 27.85473633 C5.24156242 35.89850047 4.41929046 43.80013305 0.875 51.125 C0.52179688 51.87007812 0.16859375 52.61515625 -0.1953125 53.3828125 C-0.46085938 53.91648438 -0.72640625 54.45015625 -1 55 C-1.66 55 -2.32 55 -3 55 C-2.566875 53.7625 -2.13375 52.525 -1.6875 51.25 C-1.11682538 49.50264865 -0.5549692 47.75240276 0 46 C0.28617188 45.10667969 0.57234375 44.21335938 0.8671875 43.29296875 C4.41384604 30.94721925 3.74956663 19.20660787 0.65625 6.890625 C0 4 0 4 0 0 Z"/>
<path transform="translate(265,175)" fill="#D35D61" d="M0 0 C0.99 0.495 0.99 0.495 2 1 C6.20558313 13.92372626 8.30147734 27.82672565 4 41 C2.81332447 36.83158514 3.01413079 32.85599959 3.125 28.5625 C3.23130296 21.63322531 2.57292877 15.50525071 0.65625 8.796875 C-0.05182673 5.77911943 -0.10966211 3.0888161 0 0 Z"/>
<path transform="translate(15,87)" fill="#D46165" d="M0 0 C0.33 0 0.66 0 1 0 C0.88382356 1.37577361 0.75654223 2.75061045 0.625 4.125 C0.55539063 4.89070313 0.48578125 5.65640625 0.4140625 6.4453125 C0 9 0 9 -1.01367188 11.78125 C-2.02362792 15.07710656 -2.23069814 17.62228006 -2.1953125 21.0546875 C-2.18886719 22.16328125 -2.18242187 23.271875 -2.17578125 24.4140625 C-2.15902344 25.55617188 -2.14226563 26.69828125 -2.125 27.875 C-2.11597656 29.0403125 -2.10695313 30.205625 -2.09765625 31.40625 C-2.07417432 34.27104577 -2.04133141 37.13541535 -2 40 C-6.71287684 32.93068474 -5.97570896 22.87802101 -4.61914062 14.70556641 C-1.93963472 1.93963472 -1.93963472 1.93963472 0 0 Z"/>
<path transform="translate(148,11)" fill="#D35C60" d="M0 0 C10.15176262 -0.32476018 19.21309195 -0.16801648 29 3 C29 3.66 29 4.32 29 5 C31.475 5.495 31.475 5.495 34 6 C30.74973857 7.0891761 29.09247902 6.91402137 25.94140625 5.63671875 C20.65230907 3.7320367 15.51578104 3.2356264 9.9375 2.8125 C8.97650391 2.73064453 8.01550781 2.64878906 7.02539062 2.56445312 C4.68422227 2.36644386 2.34272368 2.17848408 0 2 C0 1.34 0 0.68 0 0 Z"/>
<path transform="translate(42,56)" fill="#D2595D" d="M0 0 C0.66 0.33 1.32 0.66 2 1 C0.62328125 2.01707031 0.62328125 2.01707031 -0.78125 3.0546875 C-11.29618161 10.96847411 -19.03077016 19.11893676 -25 31 C-26 29 -26 29 -25.35546875 27.00390625 C-19.70960321 15.20234785 -10.773734 7.14835203 0 0 Z"/>
<path transform="translate(152,146)" fill="#E19295" d="M0 0 C1.32 0.33 2.64 0.66 4 1 C-0.62 5.62 -5.24 10.24 -10 15 C-10.33 13.68 -10.66 12.36 -11 11 C-9.33067656 8.81935226 -7.76989401 7.07139986 -5.8125 5.1875 C-5.31685547 4.67251953 -4.82121094 4.15753906 -4.31054688 3.62695312 C-2.83203125 2.16796875 -2.83203125 2.16796875 0 0 Z"/>
<path transform="translate(172,268)" fill="#D05357" d="M0 0 C1.62521995 0.29043855 3.25016079 0.58243892 4.875 0.875 C5.88175781 1.05546875 6.88851562 1.2359375 7.92578125 1.421875 C10.65398299 1.93492946 13.35325766 2.52198899 16.0625 3.125 C22.00684332 4.33096102 28.18533255 4.93822248 34 3 C36.1875 3.9375 36.1875 3.9375 38 5 C25.58464428 9.13845191 11.82653056 5.19168172 0 1 C0 0.67 0 0.34 0 0 Z"/>
<path transform="translate(167,159)" fill="#F6DFE0" d="M0 0 C0.66 0.33 1.32 0.66 2 1 C-2.03523352 5.81123996 -6.04467233 10.13242719 -11 14 C-11 9.82308582 -8.77013484 7.86318847 -6 5 C-4.05228995 3.24842937 -2.05675499 1.62627139 0 0 Z"/>
<path transform="translate(571,86)" fill="#2F2F2F" d="M0 0 C0.66 0.33 1.32 0.66 2 1 C-1.96 4.96 -5.92 8.92 -10 13 C-10 8.41771462 -7.08388033 6.1816619 -4 3 C-1.625 1.0625 -1.625 1.0625 0 0 Z"/>
<path transform="translate(50,77)" fill="#F5DDDE" d="M0 0 C-1.39750048 3.15835107 -3.05198234 5.32272825 -5.5 7.75 C-6.41265625 8.67039062 -6.41265625 8.67039062 -7.34375 9.609375 C-9 11 -9 11 -11 11 C-9.60249952 7.84164893 -7.94801766 5.67727175 -5.5 3.25 C-4.8915625 2.63640625 -4.283125 2.0228125 -3.65625 1.390625 C-2 0 -2 0 0 0 Z"/>
<path transform="translate(31,160)" fill="#D25B5F" d="M0 0 C3.95906817 1.43308135 7.28718181 3.33141949 10.8125 5.625 C11.78832031 6.25664062 12.76414062 6.88828125 13.76953125 7.5390625 C14.50558594 8.02117187 15.24164063 8.50328125 16 9 C14.390625 9.7734375 14.390625 9.7734375 12 10 C9.73183591 8.6191229 7.80157974 7.27411673 5.75 5.625 C5.19570313 5.19960937 4.64140625 4.77421875 4.0703125 4.3359375 C2.68597402 3.25847208 1.33931527 2.13294279 0 1 C0 0.67 0 0.34 0 0 Z"/>
<path transform="translate(135,38)" fill="#F5DDDE" d="M0 0 C0.66 0.33 1.32 0.66 2 1 C0.38113585 2.67262717 -1.2452729 4.33795537 -2.875 6 C-3.77992188 6.928125 -4.68484375 7.85625 -5.6171875 8.8125 C-8 11 -8 11 -10 11 C-8.55218207 7.55571735 -6.72305391 5.63869038 -3.875 3.25 C-3.15054688 2.63640625 -2.42609375 2.0228125 -1.6796875 1.390625 C-0.84824219 0.70226563 -0.84824219 0.70226563 0 0 Z"/>
<path transform="translate(132,170)" fill="#D46266" d="M0 0 C1.31538327 4.15771494 0.34433068 6.8879297 -1 11 C-1.66 11 -2.32 11 -3 11 C-3 12.98 -3 14.96 -3 17 C-3.33 17 -3.66 17 -4 17 C-4.48736475 10.29873464 -3.07708804 5.93438408 0 0 Z"/>
<path transform="translate(225,135)" fill="#D2595D" d="M0 0 C5.70629354 0.42797202 9.41078616 2.84345952 14 6 C11.48952508 6.92876314 10.41936959 7.18752942 7.9296875 6.07421875 C6.91261719 5.38779297 6.91261719 5.38779297 5.875 4.6875 C5.19179687 4.23761719 4.50859375 3.78773438 3.8046875 3.32421875 C2 2 2 2 0 0 Z"/>
<path transform="translate(21,147)" fill="#D1555A" d="M0 0 C4.24404412 3.88026891 7.10917547 8.04254346 10 13 C6.17611142 11.30398371 5.08023498 9.61779996 3 6 C2.01 5.34 1.02 4.68 0 4 C0 2.68 0 1.36 0 0 Z"/>
<path transform="translate(210,45)" fill="#D05357" d="M0 0 C2.1793144 1.75864246 2.93686419 2.69396 3.51171875 5.48046875 C3.56972656 6.37378906 3.62773437 7.26710938 3.6875 8.1875 C3.75324219 9.08855469 3.81898438 9.98960938 3.88671875 10.91796875 C3.92410156 11.60503906 3.96148437 12.29210938 4 13 C1.49369722 10.07038067 0.59471506 8.08812486 0.3125 4.25 C0.24675781 3.45078125 0.18101562 2.6515625 0.11328125 1.828125 C0.07589844 1.22484375 0.03851563 0.6215625 0 0 Z"/>
<path transform="translate(13,127)" fill="#D25A5E" d="M0 0 C1.69433918 3.0469629 2.49467112 5.82821466 3.125 9.25 C3.29257812 10.14203125 3.46015625 11.0340625 3.6328125 11.953125 C3.75398438 12.62859375 3.87515625 13.3040625 4 14 C2 13 2 13 0.875 10.9375 C-0.2583306 7.13274727 -0.13434296 3.9631172 0 0 Z"/>
<path transform="translate(20,81)" fill="#E08F92" d="M0 0 C0.66 0.33 1.32 0.66 2 1 C1.37755401 2.27208622 0.75193233 3.54261882 0.125 4.8125 C-0.22304688 5.52019531 -0.57109375 6.22789063 -0.9296875 6.95703125 C-2 9 -2 9 -4 12 C-4.50423019 6.70558305 -3.18923033 4.18586481 0 0 Z"/>
<path transform="translate(237,263)" fill="#D25B5F" d="M0 0 C-3.95523655 2.75668002 -7.22423661 3.5317879 -12 4 C-8.71298741 1.21868166 -4.24676932 -2.12338466 0 0 Z"/>
</svg>