<?xml version="1.0" encoding="UTF-8"?>
<svg version="1.1" xmlns="http://www.w3.org/2000/svg" width="807" height="417">
<path d="M0 0 C266.31 0 532.62 0 807 0 C807 137.61 807 275.22 807 417 C540.69 417 274.38 417 0 417 C0 279.39 0 141.78 0 0 Z " fill="#000000" transform="translate(0,0)"/>
<path d="M0 0 C10.56 0 21.12 0 32 0 C32 61.38 32 122.76 32 186 C21.44 186 10.88 186 0 186 C0 124.62 0 63.24 0 0 Z " fill="#CC0100" transform="translate(289,112)"/>
<path d="M0 0 C52.8 0 105.6 0 160 0 C160 1.65 160 3.3 160 5 C107.2 5 54.4 5 0 5 C0 3.35 0 1.7 0 0 Z " fill="#F4E14C" transform="translate(353,169)"/>
<path d="M0 0 C2.31 0 4.62 0 7 0 C7 4.95 7 9.9 7 15 C10.3 15 13.6 15 17 15 C17 10.05 17 5.1 17 0 C19.31 0 21.62 0 24 0 C24 12.87 24 25.74 24 39 C21.69 39 19.38 39 17 39 C17 33.39 17 27.78 17 22 C13.7 22 10.4 22 7 22 C7 27.61 7 33.22 7 39 C4.69 39 2.38 39 0 39 C0 26.13 0 13.26 0 0 Z " fill="#FBE84E" transform="translate(293,60)"/>
<path d="M0 0 C2.31 0 4.62 0 7 0 C8.60194157 5.37332869 9.88118879 10.77015333 11.0625 16.25 C11.40607233 17.83886237 11.75106598 19.42741823 12.09765625 21.015625 C12.24726807 21.70946289 12.39687988 22.40330078 12.55102539 23.11816406 C13.0203463 25.20676186 13.0203463 25.20676186 14 28 C15.98 18.76 17.96 9.52 20 0 C22.64 0 25.28 0 28 0 C26.66843182 8.65470033 24.92735121 17.16164117 22.9375 25.6875 C22.66873047 26.86505859 22.39996094 28.04261719 22.12304688 29.25585938 C21.86458984 30.37154297 21.60613281 31.48722656 21.33984375 32.63671875 C21.10644287 33.64436279 20.87304199 34.65200684 20.63256836 35.69018555 C20 38 20 38 19 39 C17.14712498 39.07226502 15.29166122 39.0838122 13.4375 39.0625 C12.42558594 39.05347656 11.41367187 39.04445313 10.37109375 39.03515625 C9.19740234 39.01775391 9.19740234 39.01775391 8 39 C6.8534715 34.2511308 5.71437283 29.50056303 4.58203125 24.74829102 C4.19603361 23.13289738 3.80803348 21.51798084 3.41796875 19.90356445 C2.85666341 17.57887258 2.30265427 15.25254288 1.75 12.92578125 C1.48751465 11.84892815 1.48751465 11.84892815 1.21972656 10.75032043 C0.3600457 7.09870381 -0.2048644 3.75478041 0 0 Z " fill="#F0DE4B" transform="translate(291,308)"/>
<path d="M0 0 C31.68 0 63.36 0 96 0 C96 1.65 96 3.3 96 5 C64.32 5 32.64 5 0 5 C0 3.35 0 1.7 0 0 Z " fill="#F6E34D" transform="translate(33,293)"/>
<path d="M0 0 C31.68 0 63.36 0 96 0 C96 1.65 96 3.3 96 5 C64.32 5 32.64 5 0 5 C0 3.35 0 1.7 0 0 Z " fill="#F6E34D" transform="translate(673,169)"/>
<path d="M0 0 C31.68 0 63.36 0 96 0 C96 1.65 96 3.3 96 5 C64.32 5 32.64 5 0 5 C0 3.35 0 1.7 0 0 Z " fill="#F6E34D" transform="translate(545,169)"/>
<path d="M0 0 C31.68 0 63.36 0 96 0 C96 1.65 96 3.3 96 5 C64.32 5 32.64 5 0 5 C0 3.35 0 1.7 0 0 Z " fill="#F6E34D" transform="translate(161,169)"/>
<path d="M0 0 C31.68 0 63.36 0 96 0 C96 1.65 96 3.3 96 5 C64.32 5 32.64 5 0 5 C0 3.35 0 1.7 0 0 Z " fill="#F6E34D" transform="translate(33,169)"/>
<path d="M0 0 C31.68 0 63.36 0 96 0 C96 1.65 96 3.3 96 5 C64.32 5 32.64 5 0 5 C0 3.35 0 1.7 0 0 Z " fill="#F6E34D" transform="translate(257,45)"/>
<path d="M0 0 C4.29 0 8.58 0 13 0 C13 15.84 13 31.68 13 48 C8.71 48 4.42 48 0 48 C0 46.35 0 44.7 0 43 C1.98 43 3.96 43 6 43 C6 30.46 6 17.92 6 5 C4.02 5 2.04 5 0 5 C0 3.35 0 1.7 0 0 Z " fill="#F6E34D" transform="translate(329,244)"/>
<path d="M0 0 C4.29 0 8.58 0 13 0 C13 1.65 13 3.3 13 5 C11.02 5 9.04 5 7 5 C7 17.54 7 30.08 7 43 C8.98 43 10.96 43 13 43 C13 44.65 13 46.3 13 48 C8.71 48 4.42 48 0 48 C0 32.16 0 16.32 0 0 Z " fill="#F2E04C" transform="translate(268,244)"/>
<path d="M0 0 C4.29 0 8.58 0 13 0 C13 15.84 13 31.68 13 48 C8.71 48 4.42 48 0 48 C0 46.35 0 44.7 0 43 C1.98 43 3.96 43 6 43 C6 30.46 6 17.92 6 5 C4.02 5 2.04 5 0 5 C0 3.35 0 1.7 0 0 Z " fill="#F6E34D" transform="translate(329,182)"/>
<path d="M0 0 C4.29 0 8.58 0 13 0 C13 1.65 13 3.3 13 5 C11.02 5 9.04 5 7 5 C7 17.54 7 30.08 7 43 C8.98 43 10.96 43 13 43 C13 44.65 13 46.3 13 48 C8.71 48 4.42 48 0 48 C0 32.16 0 16.32 0 0 Z " fill="#F2E04C" transform="translate(268,182)"/>
<path d="M0 0 C4.29 0 8.58 0 13 0 C13 15.84 13 31.68 13 48 C8.71 48 4.42 48 0 48 C0 46.35 0 44.7 0 43 C1.98 43 3.96 43 6 43 C6 30.46 6 17.92 6 5 C4.02 5 2.04 5 0 5 C0 3.35 0 1.7 0 0 Z " fill="#F6E34D" transform="translate(329,120)"/>
<path d="M0 0 C4.29 0 8.58 0 13 0 C13 1.65 13 3.3 13 5 C11.02 5 9.04 5 7 5 C7 17.54 7 30.08 7 43 C8.98 43 10.96 43 13 43 C13 44.65 13 46.3 13 48 C8.71 48 4.42 48 0 48 C0 32.16 0 16.32 0 0 Z " fill="#F2E04C" transform="translate(268,120)"/>
<path d="M0 0 C2.6875 -0.5 2.6875 -0.5 6 0 C11.72568316 5.96425329 14.12304951 14.77304911 14.4375 22.8125 C14.19040094 32.03753171 10.90947484 40.28511096 6 48 C4.02 48 2.04 48 0 48 C1.06728468 44.71604715 2.19376961 41.54608127 3.55078125 38.3671875 C5.2822158 33.7507362 5.45880828 29.51644587 5.375 24.625 C5.36774902 23.79081543 5.36049805 22.95663086 5.35302734 22.09716797 C5.21642178 16.00693554 4.39045323 10.64380178 2 5 C1.608125 3.96875 1.21625 2.9375 0.8125 1.875 C0.4103125 0.946875 0.4103125 0.946875 0 0 Z " fill="#F9DA4A" transform="translate(297,182)"/>
<path d="M0 0 C1.98 0 3.96 0 6 0 C6 17.82 6 35.64 6 54 C4.02 54 2.04 54 0 54 C0 36.18 0 18.36 0 0 Z " fill="#EDDB4A" transform="translate(718,306)"/>
<path d="M0 0 C1.98 0 3.96 0 6 0 C6 17.82 6 35.64 6 54 C4.02 54 2.04 54 0 54 C0 36.18 0 18.36 0 0 Z " fill="#EDDB4A" transform="translate(654,306)"/>
<path d="M0 0 C1.98 0 3.96 0 6 0 C6 17.82 6 35.64 6 54 C4.02 54 2.04 54 0 54 C0 36.18 0 18.36 0 0 Z " fill="#EDDB4A" transform="translate(270,306)"/>
<path d="M0 0 C1.98 0 3.96 0 6 0 C6 17.82 6 35.64 6 54 C4.02 54 2.04 54 0 54 C0 36.18 0 18.36 0 0 Z " fill="#EDDB4A" transform="translate(206,306)"/>
<path d="M0 0 C1.98 0 3.96 0 6 0 C6 17.82 6 35.64 6 54 C4.02 54 2.04 54 0 54 C0 36.18 0 18.36 0 0 Z " fill="#EDDB4A" transform="translate(782,244)"/>
<path d="M0 0 C1.98 0 3.96 0 6 0 C6 17.82 6 35.64 6 54 C4.02 54 2.04 54 0 54 C0 36.18 0 18.36 0 0 Z " fill="#EDDB4A" transform="translate(654,244)"/>
<path d="M0 0 C1.98 0 3.96 0 6 0 C6 17.82 6 35.64 6 54 C4.02 54 2.04 54 0 54 C0 36.18 0 18.36 0 0 Z " fill="#EDDB4A" transform="translate(526,244)"/>
<path d="M0 0 C1.98 0 3.96 0 6 0 C6 17.82 6 35.64 6 54 C4.02 54 2.04 54 0 54 C0 36.18 0 18.36 0 0 Z " fill="#EDDB4A" transform="translate(462,244)"/>
<path d="M0 0 C1.98 0 3.96 0 6 0 C6 17.82 6 35.64 6 54 C4.02 54 2.04 54 0 54 C0 36.18 0 18.36 0 0 Z " fill="#EDDB4A" transform="translate(398,244)"/>
<path d="M0 0 C1.98 0 3.96 0 6 0 C6 17.82 6 35.64 6 54 C4.02 54 2.04 54 0 54 C0 36.18 0 18.36 0 0 Z " fill="#EDDB4A" transform="translate(142,244)"/>
<path d="M0 0 C1.98 0 3.96 0 6 0 C6 17.82 6 35.64 6 54 C4.02 54 2.04 54 0 54 C0 36.18 0 18.36 0 0 Z " fill="#EDDB4A" transform="translate(14,244)"/>
<path d="M0 0 C1.98 0 3.96 0 6 0 C6 17.82 6 35.64 6 54 C4.02 54 2.04 54 0 54 C0 36.18 0 18.36 0 0 Z " fill="#EDDB4A" transform="translate(782,182)"/>
<path d="M0 0 C1.98 0 3.96 0 6 0 C6 17.82 6 35.64 6 54 C4.02 54 2.04 54 0 54 C0 36.18 0 18.36 0 0 Z " fill="#EDDB4A" transform="translate(654,182)"/>
<path d="M0 0 C1.98 0 3.96 0 6 0 C6 17.82 6 35.64 6 54 C4.02 54 2.04 54 0 54 C0 36.18 0 18.36 0 0 Z " fill="#EDDB4A" transform="translate(526,182)"/>
<path d="M0 0 C1.98 0 3.96 0 6 0 C6 17.82 6 35.64 6 54 C4.02 54 2.04 54 0 54 C0 36.18 0 18.36 0 0 Z " fill="#EDDB4A" transform="translate(142,182)"/>
<path d="M0 0 C1.98 0 3.96 0 6 0 C6 17.82 6 35.64 6 54 C4.02 54 2.04 54 0 54 C0 36.18 0 18.36 0 0 Z " fill="#EDDB4A" transform="translate(14,182)"/>
<path d="M0 0 C21.12 0 42.24 0 64 0 C64 1.65 64 3.3 64 5 C42.88 5 21.76 5 0 5 C0 3.35 0 1.7 0 0 Z " fill="#F5E24C" transform="translate(545,293)"/>
<path d="M0 0 C21.12 0 42.24 0 64 0 C64 1.65 64 3.3 64 5 C42.88 5 21.76 5 0 5 C0 3.35 0 1.7 0 0 Z " fill="#F5E24C" transform="translate(321,107)"/>
<path d="M0 0 C21.12 0 42.24 0 64 0 C64 1.65 64 3.3 64 5 C42.88 5 21.76 5 0 5 C0 3.35 0 1.7 0 0 Z " fill="#F5E24C" transform="translate(225,107)"/>
<path d="M0 0 C10.56 0 21.12 0 32 0 C32 1.65 32 3.3 32 5 C21.44 5 10.88 5 0 5 C0 3.35 0 1.7 0 0 Z " fill="#F7E54D" transform="translate(673,355)"/>
<path d="M0 0 C10.56 0 21.12 0 32 0 C32 1.65 32 3.3 32 5 C21.44 5 10.88 5 0 5 C0 3.35 0 1.7 0 0 Z " fill="#F7E54D" transform="translate(225,355)"/>
<path d="M0 0 C10.56 0 21.12 0 32 0 C32 1.65 32 3.3 32 5 C21.44 5 10.88 5 0 5 C0 3.35 0 1.7 0 0 Z " fill="#F7E54D" transform="translate(737,293)"/>
<path d="M0 0 C10.56 0 21.12 0 32 0 C32 1.65 32 3.3 32 5 C21.44 5 10.88 5 0 5 C0 3.35 0 1.7 0 0 Z " fill="#F7E54D" transform="translate(481,293)"/>
<path d="M0 0 C10.56 0 21.12 0 32 0 C32 1.65 32 3.3 32 5 C21.44 5 10.88 5 0 5 C0 3.35 0 1.7 0 0 Z " fill="#F7E54D" transform="translate(417,293)"/>
<path d="M0 0 C10.56 0 21.12 0 32 0 C32 1.65 32 3.3 32 5 C21.44 5 10.88 5 0 5 C0 3.35 0 1.7 0 0 Z " fill="#F7E54D" transform="translate(353,293)"/>
<path d="M0 0 C10.56 0 21.12 0 32 0 C32 1.65 32 3.3 32 5 C21.44 5 10.88 5 0 5 C0 3.35 0 1.7 0 0 Z " fill="#F7E54D" transform="translate(161,293)"/>
<path d="M0 0 C10.56 0 21.12 0 32 0 C32 1.65 32 3.3 32 5 C21.44 5 10.88 5 0 5 C0 3.35 0 1.7 0 0 Z " fill="#F7E54D" transform="translate(33,231)"/>
<path d="M0 0 C5.28 0 10.56 0 16 0 C16 2.64 16 5.28 16 8 C10.72 8 5.44 8 0 8 C0 5.36 0 2.72 0 0 Z " fill="#EEDC4A" transform="translate(105,203)"/>
<path d="M0 0 C10.23 0 20.46 0 31 0 C31 1.32 31 2.64 31 4 C20.77 4 10.54 4 0 4 C0 2.68 0 1.36 0 0 Z " fill="#FCE94F" transform="translate(577,294)"/>
<path d="M0 0 C10.23 0 20.46 0 31 0 C31 1.32 31 2.64 31 4 C20.77 4 10.54 4 0 4 C0 2.68 0 1.36 0 0 Z " fill="#FCE94F" transform="translate(65,294)"/>
<path d="M0 0 C2.64 0 5.28 0 8 0 C8.64317031 7.07487342 6.82735898 11.09493185 3 17 C1.35 17 -0.3 17 -2 17 C-1.34 11.39 -0.68 5.78 0 0 Z " fill="#F3E14C" transform="translate(621,276)"/>
<path d="M0 0 C10.23 0 20.46 0 31 0 C31 1.32 31 2.64 31 4 C20.77 4 10.54 4 0 4 C0 2.68 0 1.36 0 0 Z " fill="#FCE94F" transform="translate(705,170)"/>
<path d="M0 0 C10.23 0 20.46 0 31 0 C31 1.32 31 2.64 31 4 C20.77 4 10.54 4 0 4 C0 2.68 0 1.36 0 0 Z " fill="#FCE94F" transform="translate(577,170)"/>
<path d="M0 0 C10.23 0 20.46 0 31 0 C31 1.32 31 2.64 31 4 C20.77 4 10.54 4 0 4 C0 2.68 0 1.36 0 0 Z " fill="#FCE94F" transform="translate(417,170)"/>
<path d="M0 0 C10.23 0 20.46 0 31 0 C31 1.32 31 2.64 31 4 C20.77 4 10.54 4 0 4 C0 2.68 0 1.36 0 0 Z " fill="#FCE94F" transform="translate(385,170)"/>
<path d="M0 0 C10.23 0 20.46 0 31 0 C31 1.32 31 2.64 31 4 C20.77 4 10.54 4 0 4 C0 2.68 0 1.36 0 0 Z " fill="#FCE94F" transform="translate(353,170)"/>
<path d="M0 0 C10.23 0 20.46 0 31 0 C31 1.32 31 2.64 31 4 C20.77 4 10.54 4 0 4 C0 2.68 0 1.36 0 0 Z " fill="#FCE94F" transform="translate(193,170)"/>
<path d="M0 0 C10.23 0 20.46 0 31 0 C31 1.32 31 2.64 31 4 C20.77 4 10.54 4 0 4 C0 2.68 0 1.36 0 0 Z " fill="#FCE94F" transform="translate(65,170)"/>
<path d="M0 0 C10.23 0 20.46 0 31 0 C31 1.32 31 2.64 31 4 C20.77 4 10.54 4 0 4 C0 2.68 0 1.36 0 0 Z " fill="#FCE94F" transform="translate(353,108)"/>
<path d="M0 0 C10.23 0 20.46 0 31 0 C31 1.32 31 2.64 31 4 C20.77 4 10.54 4 0 4 C0 2.68 0 1.36 0 0 Z " fill="#FCE94F" transform="translate(257,108)"/>
<path d="M0 0 C10.23 0 20.46 0 31 0 C31 1.32 31 2.64 31 4 C20.77 4 10.54 4 0 4 C0 2.68 0 1.36 0 0 Z " fill="#FCE94F" transform="translate(289,46)"/>
<path d="M0 0 C2.31 0 4.62 0 7 0 C7 4.95 7 9.9 7 15 C4.69 15 2.38 15 0 15 C0 10.05 0 5.1 0 0 Z " fill="#F7D347" transform="translate(308,122)"/>
<path d="M0 0 C2.97 0 5.94 0 9 0 C9 3.3 9 6.6 9 10 C6.03 10 3.06 10 0 10 C0 6.7 0 3.4 0 0 Z " fill="#E4D247" transform="translate(716,213)"/>
<path d="M0 0 C2.97 0 5.94 0 9 0 C9 3.3 9 6.6 9 10 C6.03 10 3.06 10 0 10 C0 6.7 0 3.4 0 0 Z " fill="#E4D247" transform="translate(588,213)"/>
<path d="M0 0 C2.97 0 5.94 0 9 0 C9 3.3 9 6.6 9 10 C6.03 10 3.06 10 0 10 C0 6.7 0 3.4 0 0 Z " fill="#E4D247" transform="translate(204,213)"/>
<path d="M0 0 C1.98 0 3.96 0 6 0 C6 4.62 6 9.24 6 14 C4.02 14 2.04 14 0 14 C0 9.38 0 4.76 0 0 Z " fill="#FCE94F" transform="translate(302,246)"/>
<path d="M0 0 C1.98 0 3.96 0 6 0 C6 4.62 6 9.24 6 14 C4.02 14 2.04 14 0 14 C0 9.38 0 4.76 0 0 Z " fill="#FCE94F" transform="translate(622,184)"/>
<path d="M0 0 C1.98 0 3.96 0 6 0 C6 4.62 6 9.24 6 14 C4.02 14 2.04 14 0 14 C0 9.38 0 4.76 0 0 Z " fill="#FCE94F" transform="translate(295,122)"/>
</svg>
