<svg style="max-height: 500px" viewBox="4.9 0 189.35000000000002 86.37786196672707" version="1.1" xmlns="http://www.w3.org/2000/svg" width="189.35000000000002" height="86.37786196672707">
<path d="M0 0 C1.53514298 0.0150886 3.07030046 0.02876955 4.60546875 0.04101562 C8.3206202 0.07365722 12.03521333 0.12520353 15.75 0.1875 C6.49149246 24.23316672 -13.95102318 66.11882858 -38.25 78.1875 C-41.07432361 79.1289412 -42.92084945 79.33937351 -45.85400391 79.39624023 C-46.78572418 79.41553085 -47.71744446 79.43482147 -48.67739868 79.45469666 C-52.94813978 79.51267854 -57.21871563 79.56174205 -61.48974609 79.5925293 C-63.73599656 79.6140749 -65.98216386 79.64813645 -68.22802734 79.69506836 C-71.47791796 79.76232563 -74.7260725 79.78957378 -77.9765625 79.80859375 C-79.46768051 79.85033974 -79.46768051 79.85033974 -80.98892212 79.89292908 C-88.18823913 79.87191725 -92.95557456 78.15678076 -98.25 73.1875 C-100.07924515 70.91762259 -101.31504984 68.61273498 -102.5 65.95703125 C-102.82516602 65.26768997 -103.15033203 64.57834869 -103.48535156 63.86811829 C-107.11320784 55.83260352 -109.2159052 47.4230627 -111.25 38.875 C-111.64549101 37.28669901 -112.04262129 35.69880529 -112.44140625 34.11132812 C-115.25 22.78940885 -115.25 22.78940885 -115.25 19.1875 C-116.35408203 20.29351563 -116.35408203 20.29351563 -117.48046875 21.421875 C-119.10293688 23.04205475 -120.74373258 24.64488961 -122.42578125 26.203125 C-129.34592755 33.43954856 -131.70978289 41.49441986 -134.4230957 50.97558594 C-137.89024002 63.05587621 -141.88208728 72.72339277 -153.25 79.1875 C-160.12499283 81.41106911 -166.56669577 81.4242021 -173.75 81.3125 C-174.85859375 81.30347656 -175.9671875 81.29445313 -177.109375 81.28515625 C-179.82314592 81.26176167 -182.53645545 81.22898175 -185.25 81.1875 C-184.69517571 74.65881422 -183.07374021 69.01094118 -180.8125 62.875 C-180.45978027 61.91658203 -180.10706055 60.95816406 -179.74365234 59.97070312 C-171.94139902 39.40451993 -159.59612949 14.44931921 -139.16015625 4.02734375 C-135.74269665 2.52477971 -133.03524932 2.05193113 -129.33886719 2.01049805 C-127.84151031 1.99124519 -127.84151031 1.99124519 -126.31390381 1.97160339 C-124.69672455 1.96052299 -124.69672455 1.96052299 -123.046875 1.94921875 C-121.93572327 1.941147 -120.82457153 1.93307526 -119.67974854 1.92475891 C-117.32606566 1.91092161 -114.97236275 1.90019787 -112.61865234 1.89233398 C-109.02793097 1.87513379 -105.43813328 1.83124448 -101.84765625 1.78710938 C-99.5599026 1.77698116 -97.27214112 1.76846546 -94.984375 1.76171875 C-93.91435242 1.74421066 -92.84432983 1.72670258 -91.74188232 1.70866394 C-84.41612106 1.72986598 -80.05536516 2.82345728 -74.46484375 7.765625 C-64.57390492 20.71156328 -57.25 45.13945682 -57.25 61.1875 C-56.59 61.1875 -55.93 61.1875 -55.25 61.1875 C-55.0802063 60.21139771 -55.0802063 60.21139771 -54.90698242 59.21557617 C-53.50233819 52.74147643 -51.34836934 46.44422326 -49.37719727 40.12426758 C-48.83738462 38.38544643 -48.30312959 36.64488944 -47.7746582 34.90258789 C-40.07545682 9.52677152 -40.07545682 9.52677152 -31.31494141 4.13623047 C-21.28295336 -0.47293311 -10.76305793 -0.18605417 0 0 Z" fill="#074F91" transform="translate(187.25,5.8125)"/>
<path d="M0 0 C1.53514298 0.0150886 3.07030046 0.02876955 4.60546875 0.04101562 C8.3206202 0.07365722 12.03521333 0.12520353 15.75 0.1875 C7.08308551 22.69671506 -7.56238066 45.10900146 -22.25 64.1875 C-23.29414063 65.57775391 -23.29414063 65.57775391 -24.359375 66.99609375 C-29.03709331 72.80698025 -29.03709331 72.80698025 -32.2421875 73.8125 C-34.25 74 -34.25 74 -36.23828125 74.0078125 C-38.73915684 74.23119168 -40.27042034 75.13086046 -42.4375 76.375 C-45.094202 77.78393589 -45.92495691 78.21704937 -49 77.9375 C-51.8477755 75.7225635 -52.92106725 73.42570861 -54.35546875 70.16015625 C-55.29792778 67.94058561 -55.29792778 67.94058561 -57.25 65.1875 C-59.74552484 65.96880071 -59.74552484 65.96880071 -62.25 67.1875 C-62.58 68.1775 -62.91 69.1675 -63.25 70.1875 C-67.97111387 68.61379538 -68.97403812 65.14039545 -71.21875 60.85546875 C-75.02029086 52.62693589 -77.38964344 43.77266042 -80.0390625 35.125 C-84.23496971 21.04604952 -84.23496971 21.04604952 -92.11328125 8.87109375 C-93.25 7.1875 -93.25 7.1875 -93.25 3.1875 C-91.70923813 1.64673813 -90.2655515 1.94393301 -88.125 1.875 C-82.45315084 1.97387534 -78.73018804 3.81948127 -74.6953125 7.671875 C-64.3439668 19.79313992 -57.25 45.65632686 -57.25 61.1875 C-56.59 61.1875 -55.93 61.1875 -55.25 61.1875 C-55.1368042 60.53676514 -55.0236084 59.88603027 -54.90698242 59.21557617 C-53.50233819 52.74147643 -51.34836934 46.44422326 -49.37719727 40.12426758 C-48.83738462 38.38544643 -48.30312959 36.64488944 -47.7746582 34.90258789 C-40.07545682 9.52677152 -40.07545682 9.52677152 -31.31494141 4.13623047 C-21.28295336 -0.47293311 -10.76305793 -0.18605417 0 0 Z" fill="#1365A1" transform="translate(187.25,5.8125)"/>
<path d="M0 0 C-1.63604676 5.67038933 -4.2587304 10.67992417 -7 15.875 C-7.48476807 16.79667969 -7.96953613 17.71835937 -8.46899414 18.66796875 C-18.92996857 38.31605322 -18.92996857 38.31605322 -25.09765625 45.4140625 C-27.61734666 48.83918581 -28.71987703 52.35175639 -30 56.375 C-31.81672058 62.02480137 -33.89440937 66.92664289 -37 72 C-39 71 -39 71 -40.125 67.9375 C-40.41375 66.968125 -40.7025 65.99875 -41 65 C-43.99152582 65.77479736 -43.99152582 65.77479736 -47 67 C-47.33 67.99 -47.66 68.98 -48 70 C-52.72111387 68.42629538 -53.72403812 64.95289545 -55.96875 60.66796875 C-59.77029086 52.43943589 -62.13964344 43.58516042 -64.7890625 34.9375 C-68.98496971 20.85854952 -68.98496971 20.85854952 -76.86328125 8.68359375 C-78 7 -78 7 -78 3 C-76.45923813 1.45923813 -75.0155515 1.75643301 -72.875 1.6875 C-67.20315084 1.78637534 -63.48018804 3.63198127 -59.4453125 7.484375 C-49.0939668 19.60563992 -42 45.46882686 -42 61 C-41.34 61 -40.68 61 -40 61 C-39.8868042 60.34926514 -39.7736084 59.69853027 -39.65698242 59.02807617 C-38.25233819 52.55397643 -36.09836934 46.25672326 -34.12719727 39.93676758 C-33.58738462 38.19794643 -33.05312959 36.45738944 -32.5246582 34.71508789 C-24.87345769 9.49747768 -24.87345769 9.49747768 -16.13671875 3.9609375 C-11.24282805 1.7600287 -5.39918297 0 0 0 Z" fill="#2996C2" transform="translate(172,6)"/>
<path d="M0 0 C-0.21914062 0.59683594 -0.43828125 1.19367187 -0.6640625 1.80859375 C-1.25392889 3.99939092 -1.25392889 3.99939092 0.0390625 5.53515625 C0.56242187 6.03917969 1.08578125 6.54320312 1.625 7.0625 C8.66280495 14.62961355 11.18807992 25.23866183 14 34.9375 C17.25902515 46.13874296 20.86954708 57.00963228 27 67 C27.66 67 28.32 67 29 67 C29.45375 66.54625 29.9075 66.0925 30.375 65.625 C32.12920379 63.87079621 33.77382267 63.05354071 36 62 C36.83819158 63.62249941 37.6704116 65.24808497 38.5 66.875 C39.19609375 68.23238281 39.19609375 68.23238281 39.90625 69.6171875 C41 72 41 72 41 74 C45.4080209 75.33843544 47.57335372 74.62180782 51.625 72.5625 C56.72207084 70 56.72207084 70 60 70 C59.00477911 73.20682288 58.04333675 73.97618904 55.05444336 75.6184082 C50.32519707 77.52738755 45.72550986 77.37711631 40.69140625 77.29296875 C39.24132423 77.28660149 39.24132423 77.28660149 37.76194763 77.28010559 C34.69517351 77.26340522 31.6290732 77.22576899 28.5625 77.1875 C26.47461891 77.172442 24.38672745 77.15875555 22.29882812 77.14648438 C17.19896185 77.11352999 12.0995949 77.06180751 7 77 C7 76.67 7 76.34 7 76 C9.31 75.67 11.62 75.34 14 75 C13.175 74.175 12.35 73.35 11.5 72.5 C2.83816455 62.25960575 -1.52383221 48.42240648 -6.33642578 36.11791992 C-9.46945291 28.15841995 -12.93387486 20.52637071 -17 13 C-19.31 13.66 -21.62 14.32 -24 15 C-24.66 13.02 -25.32 11.04 -26 9 C-19.39538348 2.39538348 -9.06636342 -0.37005565 0 0 Z" fill="#0E5B93" transform="translate(95,8)"/>
<path d="M0 0 C0.33 1.65 0.66 3.3 1 5 C1.763125 4.484375 2.52625 3.96875 3.3125 3.4375 C4.199375 2.963125 5.08625 2.48875 6 2 C9 3 9 3 10.09985352 4.64453125 C10.43944092 5.35996094 10.77902832 6.07539063 11.12890625 6.8125 C11.51916992 7.62871826 11.90943359 8.44493652 12.31152344 9.28588867 C12.7243457 10.18154541 13.13716797 11.07720215 13.5625 12 C13.99723633 12.92466064 14.43197266 13.84932129 14.87988281 14.80200195 C18.74614919 23.1592244 22.17001686 31.68240009 25.42407227 40.29492188 C28.98333299 49.54131952 32.77059846 58.12185604 41 64 C38.00531544 66.99468456 35.07150624 66.93041998 30.9453125 67.18359375 C25.54249474 66.84681333 22.66309976 64.88278301 19 61 C17.55071062 58.63730188 16.26664353 56.36345202 15.04296875 53.890625 C14.69665405 53.19254227 14.35033936 52.49445953 13.99353027 51.77522278 C10.16521276 43.71767622 8.05703637 35.33197213 6 26.6875 C5.60450899 25.09919901 5.20737871 23.51130529 4.80859375 21.92382812 C2 10.60190885 2 10.60190885 2 7 C-1.49049637 10.39766402 -4.67741794 13.9086365 -7.75 17.6875 C-8.52859375 18.64011719 -9.3071875 19.59273437 -10.109375 20.57421875 C-11.99986059 22.8354719 -11.99986059 22.8354719 -13 25 C-13.66 25 -14.32 25 -15 25 C-15 25.66 -15 26.32 -15 27 C-17.97 27 -20.94 27 -24 27 C-21.90656904 21.01725061 -18.0306416 16.79733973 -14 12 C-13.3709375 11.24589844 -12.741875 10.49179687 -12.09375 9.71484375 C-3.81343458 0 -3.81343458 0 0 0 Z" fill="#2295C0" transform="translate(70,18)"/>
<path d="M0 0 C9 0 9 0 11.11791992 1.73266602 C11.58818604 2.54405029 12.05845215 3.35543457 12.54296875 4.19140625 C13.10161621 5.1055127 13.66026367 6.01961914 14.23583984 6.96142578 C14.8180127 7.96415527 15.40018555 8.96688477 16 10 C17.36421382 12.11772906 18.73555971 14.2308774 20.11328125 16.33984375 C21.51522312 18.53765926 22.91494093 20.73689494 24.3125 22.9375 C25.03429394 24.07109809 25.75629819 25.2045623 26.47851562 26.33789062 C27.79189482 28.3989428 29.10427406 30.46063281 30.4152832 32.52319336 C31.59120512 34.36108087 32.78970788 36.18456181 34 38 C34.33 25.46 34.66 12.92 35 0 C37.31 0 39.62 0 42 0 C42 16.83 42 33.66 42 51 C33 51 33 51 30.86767578 49.25024414 C30.3982959 48.43676514 29.92891602 47.62328613 29.4453125 46.78515625 C28.62474365 45.42511475 28.62474365 45.42511475 27.78759766 44.03759766 C27.23894043 43.05581543 26.6902832 42.0740332 26.125 41.0625 C24.92799705 39.05023744 23.73006819 37.03852539 22.53125 35.02734375 C21.9434375 34.01655762 21.355625 33.00577148 20.75 31.96435547 C18.17227188 27.59789692 15.40613671 23.36351022 12.625 19.125 C11.09875 16.77375 9.5725 14.4225 8 12 C7.67 24.87 7.34 37.74 7 51 C4.69 51 2.38 51 0 51 C0 34.17 0 17.34 0 0 Z" fill="#000000" transform="translate(210,34)"/>
<path d="M0 0 C-1.63604676 5.67038933 -4.2587304 10.67992417 -7 15.875 C-7.48476807 16.79667969 -7.96953613 17.71835937 -8.46899414 18.66796875 C-18.92996857 38.31605322 -18.92996857 38.31605322 -25.09765625 45.4140625 C-27.61734666 48.83918581 -28.71987703 52.35175639 -30 56.375 C-31.81672058 62.02480137 -33.89440937 66.92664289 -37 72 C-39 71 -39 71 -39.71974182 69.2674408 C-41.3027501 62.94321766 -40.60631517 58.60679258 -38.52734375 52.50390625 C-38.24782364 51.63031967 -37.96830353 50.75673309 -37.68031311 49.85667419 C-37.08768318 48.01883305 -36.48449993 46.18436477 -35.87133789 44.35327148 C-34.94351256 41.58046853 -34.04820024 38.79881906 -33.15820312 36.01367188 C-25.5011168 12.34709883 -25.5011168 12.34709883 -18 6 C-17.41605469 5.49726563 -16.83210938 4.99453125 -16.23046875 4.4765625 C-13.50418788 2.67177412 -11.0532776 2.05045389 -7.875 1.3125 C-6.82054687 1.06113281 -5.76609375 0.80976562 -4.6796875 0.55078125 C-2 0 -2 0 0 0 Z" fill="#2299C4" transform="translate(172,6)"/>
<path d="M0 0 C1.13695312 0.11601563 2.27390625 0.23203125 3.4453125 0.3515625 C4.59773438 0.44179687 5.75015625 0.53203125 6.9375 0.625 C8.24074219 0.79902344 8.24074219 0.79902344 9.5703125 0.9765625 C-0.28073176 26.56113173 -17.56751773 54.06064023 -36.4296875 73.9765625 C-37.4196875 73.6465625 -38.4096875 73.3165625 -39.4296875 72.9765625 C-38.9553125 72.4196875 -38.4809375 71.8628125 -37.9921875 71.2890625 C-36.29794418 69.10766429 -36.29794418 69.10766429 -35.98234558 66.66166687 C-35.37420939 63.7070206 -34.35216118 61.40891339 -33.0246582 58.70239258 C-32.2730114 57.15972466 -32.2730114 57.15972466 -31.50617981 55.58589172 C-30.96144516 54.48375839 -30.41671051 53.38162506 -29.85546875 52.24609375 C-29.29401657 51.10049484 -28.73256439 49.95489594 -28.15409851 48.77458191 C-26.96401443 46.34982798 -25.77170539 43.92633234 -24.57543945 41.50463867 C-23.05680661 38.42978356 -21.54721795 35.35059825 -20.04060078 32.26984119 C-18.58757753 29.3013637 -17.12752119 26.33636654 -15.66796875 23.37109375 C-15.13335526 22.27908157 -14.59874176 21.1870694 -14.04792786 20.06196594 C-4.79326027 1.36482354 -4.79326027 1.36482354 0 0 Z" fill="#4EB1D0" transform="translate(193.4296875,5.0234375)"/>
<path d="M0 0 C8.91 0 17.82 0 27 0 C27 1.98 27 3.96 27 6 C20.4 6 13.8 6 7 6 C7 11.28 7 16.56 7 22 C12.94 22 18.88 22 25 22 C25 23.98 25 25.96 25 28 C19.06 28 13.12 28 7 28 C7 33.61 7 39.22 7 45 C13.93 45 20.86 45 28 45 C28 46.98 28 48.96 28 51 C18.76 51 9.52 51 0 51 C0 34.17 0 17.34 0 0 Z" fill="#000000" transform="translate(262,34)"/>
<path d="M0 0 C0.77261673 0.00141495 1.54523346 0.0028299 2.34126282 0.00428772 C4.80697514 0.00988159 7.2725964 0.02243292 9.73828125 0.03515625 C11.41080598 0.04017204 13.08333213 0.04473481 14.75585938 0.04882812 C18.85420171 0.05984901 22.95247604 0.07710941 27.05078125 0.09765625 C24.36843594 1.88588645 22.09564048 2.94956007 19.11328125 4.09765625 C16.00458869 5.29799606 13.00858756 6.56042049 10.05078125 8.09765625 C9.28765625 7.47890625 8.52453125 6.86015625 7.73828125 6.22265625 C3.72919759 3.05268312 1.44974772 1.63755148 -3.76171875 1.78125 C-11.0113564 2.8298583 -16.15120141 7.41179774 -20.45263672 13.078125 C-25.45748286 20.04088211 -29.52956643 27.39913784 -33.51171875 34.97265625 C-34.15112865 36.17477936 -34.79110089 37.37660353 -35.43164062 38.578125 C-36.68836806 40.94046359 -37.93096496 43.30874694 -39.16796875 45.68164062 C-40.32439829 47.89939859 -41.49548313 50.10959871 -42.68359375 52.31054688 C-45.93514387 58.47904451 -47.97695943 63.92837183 -48.82421875 70.84765625 C-48.99824219 72.05421875 -48.99824219 72.05421875 -49.17578125 73.28515625 C-49.45220026 75.22008934 -49.70360148 77.15857253 -49.94921875 79.09765625 C-52.91921875 79.09765625 -55.88921875 79.09765625 -58.94921875 79.09765625 C-58.39439446 72.56897047 -56.77295896 66.92109743 -54.51171875 60.78515625 C-54.15899902 59.82673828 -53.8062793 58.86832031 -53.44287109 57.88085938 C-45.64061777 37.31467618 -33.29534824 12.35947546 -12.859375 1.9375 C-8.50460229 0.02282488 -4.66917629 -0.03212772 0 0 Z" fill="#028FBE" transform="translate(60.94921875,7.90234375)"/>
<path d="M0 0 C1.72292182 5.16876547 -0.93737131 10.07930737 -2.5625 15.125 C-2.89830078 16.2284375 -3.23410156 17.331875 -3.58007812 18.46875 C-6.48154232 27.56756883 -10.03878262 36.19356206 -18.69921875 41.0703125 C-22.9764395 42.7986292 -27.44202381 43.43863161 -32 44 C-32.33 43.34 -32.66 42.68 -33 42 C-32.07885742 39.73193359 -32.07885742 39.73193359 -30.60546875 36.8984375 C-29.79662231 35.3369397 -29.79662231 35.3369397 -28.97143555 33.74389648 C-28.38273682 32.63216064 -27.79403809 31.5204248 -27.1875 30.375 C-26.59815674 29.25101807 -26.00881348 28.12703613 -25.40161133 26.96899414 C-20.66890895 18.04109143 -15.56563882 9.4301211 -10 1 C-6.7 1.33 -3.4 1.66 0 2 C0 1.34 0 0.68 0 0 Z" fill="#0476AF" transform="translate(55,43)"/>
<path d="M0 0 C11.88 0 23.76 0 36 0 C36 1.98 36 3.96 36 6 C31.38 6 26.76 6 22 6 C22 20.85 22 35.7 22 51 C19.69 51 17.38 51 15 51 C15 36.15 15 21.3 15 6 C10.05 6 5.1 6 0 6 C0 4.02 0 2.04 0 0 Z" fill="#000000" transform="translate(294,34)"/>
<path d="M0 0 C1.65 0 3.3 0 5 0 C9.36009545 7.88634776 11.84678253 16.37256441 14.49462891 24.94311523 C17.01451449 33.05865836 19.70341262 40.25130598 25 47 C25.78375 48.010625 26.5675 49.02125 27.375 50.0625 C27.91125 50.701875 28.4475 51.34125 29 52 C26.30410228 52.75069656 24.53627388 53.16078589 21.82421875 52.34765625 C8.53890938 44.35704056 5.6187394 27.03770589 2.08154297 13.1418457 C0 4.6121642 0 4.6121642 0 0 Z" fill="#46A4CB" transform="translate(74,32)"/>
<path d="M0 0 C10 0 10 0 13.0625 1.0625 C15 3 15 3 16.0625 6.375 C15.98829559 10.67885585 14.98803047 12.01196953 12 15 C12.90029571 16.34444159 13.82088022 17.67531438 14.75 19 C15.26046875 19.7425 15.7709375 20.485 16.296875 21.25 C17.13992187 22.11625 17.13992187 22.11625 18 23 C19.32 23 20.64 23 22 23 C22 16.73 22 10.46 22 4 C21.01 4 20.02 4 19 4 C19 2.68 19 1.36 19 0 C21.97 0 24.94 0 28 0 C28 1.32 28 2.64 28 4 C27.34 4 26.68 4 26 4 C26 10.27 26 16.54 26 23 C26.66 23 27.32 23 28 23 C28 23.99 28 24.98 28 26 C23.22687113 26.52962115 18.75032224 26.80585824 14 26 C11.66943706 23.84080198 10.54734762 21.93206419 9.2109375 19.06640625 C8.81132813 18.38449219 8.41171875 17.70257813 8 17 C6.68 16.67 5.36 16.34 4 16 C4 19.3 4 22.6 4 26 C2.68 26 1.36 26 0 26 C0 17.42 0 8.84 0 0 Z M4 4 C4 6.64 4 9.28 4 12 C6.91652174 12.16681109 6.91652174 12.16681109 10 12 C10.66 11.34 11.32 10.68 12 10 C11.71016731 6.69316534 11.71016731 6.69316534 10 4 C8.00041636 3.95919217 5.99954746 3.95745644 4 4 Z" fill="#000000" transform="translate(115,109)"/>
<path d="M0 0 C1.32 0 2.64 0 4 0 C4.34933594 1.14339844 4.69867188 2.28679687 5.05859375 3.46484375 C5.51806463 4.95577988 5.97770901 6.44666255 6.4375 7.9375 C6.78264648 9.06961914 6.78264648 9.06961914 7.13476562 10.22460938 C8.03001736 13.90208452 8.03001736 13.90208452 10 17 C11.65 11.39 13.3 5.78 15 0 C16.32 0 17.64 0 19 0 C21.475 8.415 21.475 8.415 24 17 C26.4372552 10.5251697 26.4372552 10.5251697 28.6875 4 C28.93886719 3.236875 29.19023438 2.47375 29.44921875 1.6875 C29.63097656 1.130625 29.81273438 0.57375 30 0 C31.32 0 32.64 0 34 0 C31.86602101 8.73089879 29.71981556 17.42846005 27 26 C25.35 26 23.7 26 22 26 C21.32635339 23.91891315 20.66133202 21.8350329 20 19.75 C19.62875 18.58984375 19.2575 17.4296875 18.875 16.234375 C18 13 18 13 18 9 C17.34 9 16.68 9 16 9 C15.8453125 10.423125 15.8453125 10.423125 15.6875 11.875 C15.0089081 16.73491554 13.4914524 21.33803874 12 26 C10.35 26 8.7 26 7 26 C5.82898756 22.04293896 4.66392728 18.08415032 3.5 14.125 C3.16613281 12.99707031 2.83226562 11.86914062 2.48828125 10.70703125 C2.17246094 9.63066406 1.85664063 8.55429688 1.53125 7.4453125 C1.23798828 6.45031738 0.94472656 5.45532227 0.64257812 4.43017578 C0 2 0 2 0 0 Z" fill="#000000" transform="translate(29,109)"/>
<path d="M0 0 C1.40628613 5.0469727 -0.08759542 8.44230667 -1.75 13.3125 C-2.06146973 14.23095703 -2.37293945 15.14941406 -2.69384766 16.09570312 C-8.88890958 33.71430458 -16.94303812 53.14924607 -31 66 C-31.66 66 -32.32 66 -33 66 C-31.6616995 62.55798529 -30.19141748 59.22859274 -28.57324219 55.90942383 C-28.0922406 54.92102005 -27.61123901 53.93261627 -27.11566162 52.91426086 C-26.33911224 51.32668221 -26.33911224 51.32668221 -25.546875 49.70703125 C-25.00903381 48.60582443 -24.47119263 47.50461761 -23.91705322 46.37004089 C-22.77821198 44.04039901 -21.63835542 41.71125324 -20.49755859 39.38256836 C-18.76597304 35.84513115 -17.04107112 32.30448727 -15.31640625 28.76367188 C-14.20614082 26.4945902 -13.09547635 24.22570372 -11.984375 21.95703125 C-11.47477234 20.90876663 -10.96516968 19.86050201 -10.44012451 18.7804718 C-7.26267079 12.31649214 -3.81173816 6.11177393 0 0 Z" fill="#2A8FBF" transform="translate(190,6)"/>
<path d="M0 0 C2.67710191 1.33855096 2.95129094 2.72058088 4.125 5.4375 C4.47820312 6.24058594 4.83140625 7.04367188 5.1953125 7.87109375 C6 10 6 10 6 12 C10.4080209 13.33843544 12.57335372 12.62180782 16.625 10.5625 C21.72207084 8 21.72207084 8 25 8 C24.00477911 11.20682288 23.04333675 11.97618904 20.05444336 13.6184082 C15.32519707 15.52738755 10.72550986 15.37711631 5.69140625 15.29296875 C4.72468491 15.28872391 3.75796356 15.28447906 2.76194763 15.28010559 C-0.30482649 15.26340522 -3.3709268 15.22576899 -6.4375 15.1875 C-8.52538109 15.172442 -10.61327255 15.15875555 -12.70117188 15.14648438 C-17.80103815 15.11352999 -22.9004051 15.06180751 -28 15 C-28 14.67 -28 14.34 -28 14 C-27.31035156 13.91363281 -26.62070313 13.82726562 -25.91015625 13.73828125 C-19.7436079 12.81625962 -15.07135488 11.33578443 -9.77734375 8.0234375 C-8 7 -8 7 -6 7 C-5.9071875 6.1028125 -5.9071875 6.1028125 -5.8125 5.1875 C-4.66061101 2.08626042 -2.93240408 1.35891897 0 0 Z" fill="#0A4595" transform="translate(130,70)"/>
<path d="M0 0 C0.99 0.33 1.98 0.66 3 1 C-8.27286998 23.20714521 -8.27286998 23.20714521 -14.5625 33.3125 C-14.96710449 33.96863281 -15.37170898 34.62476563 -15.78857422 35.30078125 C-17.67418439 38.26536616 -19.03346208 40.02230805 -22 42 C-20.93726874 36.23098064 -19.12035748 30.75920229 -17.3125 25.1875 C-16.82233398 23.60485352 -16.82233398 23.60485352 -16.32226562 21.99023438 C-13.16676576 12.3065302 -8.91801811 5.21619927 0 0 Z" fill="#038CBB" transform="translate(168,9)"/>
<path d="M0 0 C1.58124164 5.89236273 1.58124164 5.89236273 0.09960938 8.71582031 C-1.27477661 10.44152985 -2.71883084 12.03683943 -4.25 13.625 C-5.25835581 14.71846001 -6.26363492 15.8147663 -7.265625 16.9140625 C-7.74322266 17.43129883 -8.22082031 17.94853516 -8.71289062 18.48144531 C-10.19363676 20.14475038 -10.19363676 20.14475038 -11.734375 22.8984375 C-12.15203125 23.59195313 -12.5696875 24.28546875 -13 25 C-13.66 25 -14.32 25 -15 25 C-15 25.66 -15 26.32 -15 27 C-17.97 27 -20.94 27 -24 27 C-21.90656904 21.01725061 -18.0306416 16.79733973 -14 12 C-13.3709375 11.24589844 -12.741875 10.49179687 -12.09375 9.71484375 C-3.81343458 0 -3.81343458 0 0 0 Z" fill="#35B1CF" transform="translate(70,18)"/>
<path d="M0 0 C2.475 0.495 2.475 0.495 5 1 C6.58203125 3.50390625 6.58203125 3.50390625 7.8125 6.5625 C8.23144531 7.57441406 8.65039062 8.58632813 9.08203125 9.62890625 C9.38496094 10.41136719 9.68789062 11.19382812 10 12 C12.07535607 9.35971892 13.72678097 6.77217731 15.1875 3.75 C15.70376953 2.69039062 15.70376953 2.69039062 16.23046875 1.609375 C16.61138672 0.81273437 16.61138672 0.81273437 17 0 C18.32 0 19.64 0 21 0 C21 6.6 21 13.2 21 20 C20.01 20 19.02 20 18 20 C17.67 16.37 17.34 12.74 17 9 C15.35 12.63 13.7 16.26 12 20 C11.01 20 10.02 20 9 20 C7.35 16.37 5.7 12.74 4 9 C3.67 12.63 3.34 16.26 3 20 C2.01 20 1.02 20 0 20 C0 13.4 0 6.8 0 0 Z" fill="#000000" transform="translate(210,8)"/>
<path d="M0 0 C1.32 0 2.64 0 4 0 C5.29456387 3.20717178 6.58512709 6.41593903 7.875 9.625 C8.23980469 10.52863281 8.60460937 11.43226562 8.98046875 12.36328125 C10.79047667 16.87184644 12.53669606 21.363637 14 26 C12.35 26 10.7 26 9 26 C8.34 23.69 7.68 21.38 7 19 C3.7 19 0.4 19 -3 19 C-3.66 21.31 -4.32 23.62 -5 26 C-6.32 26 -7.64 26 -9 26 C-8.37658609 22.4617797 -7.44678155 19.26706972 -6.15234375 15.91796875 C-5.79462891 14.98662109 -5.43691406 14.05527344 -5.06835938 13.09570312 C-4.69517578 12.13599609 -4.32199219 11.17628906 -3.9375 10.1875 C-3.56044922 9.20845703 -3.18339844 8.22941406 -2.79492188 7.22070312 C-1.86684405 4.8123999 -0.93509884 2.40558386 0 0 Z M1 7 C0.01 9.97 -0.98 12.94 -2 16 C0.64 16 3.28 16 6 16 C5.01 13.03 4.02 10.06 3 7 C2.34 7 1.68 7 1 7 Z" fill="#000000" transform="translate(153,109)"/>
<path d="M0 0 C0 1.65 0 3.3 0 5 C-3.3 4.67 -6.6 4.34 -10 4 C-9.69399898 7.21301068 -9.45099973 8.60797715 -6.96875 10.765625 C-5.74671875 11.50039062 -5.74671875 11.50039062 -4.5 12.25 C-3.6853125 12.75015625 -2.870625 13.2503125 -2.03125 13.765625 C-1.3609375 14.17296875 -0.690625 14.5803125 0 15 C1 16 1 16 1.25 19.375 C1 23 1 23 -0.375 24.875 C-3.95587435 27.35406686 -6.67386706 27.2237655 -11 27 C-13.4375 26 -13.4375 26 -15 25 C-15 23.68 -15 22.36 -15 21 C-14.484375 21.165 -13.96875 21.33 -13.4375 21.5 C-10.26636124 22.15049 -7.22781666 22.0620734 -4 22 C-4 20.68 -4 19.36 -4 18 C-6.44247262 16.05843374 -9.03353861 14.56799818 -11.71484375 12.9765625 C-14 11 -14 11 -14.9296875 7.953125 C-15 5 -15 5 -13.1875 2.125 C-8.7731093 -0.81792713 -5.15513812 -0.45044896 0 0 Z" fill="#000000" transform="translate(193,109)"/>
<path d="M0 0 C0.78503906 -0.00257812 1.57007812 -0.00515625 2.37890625 -0.0078125 C4.4375 0.125 4.4375 0.125 6.4375 1.125 C6.4375 2.445 6.4375 3.765 6.4375 5.125 C5.220625 4.91875 4.00375 4.7125 2.75 4.5 C-0.91624185 4.05226427 -3.32596201 4.12596183 -6.5625 6.125 C-9.17399716 9.48263921 -8.85594253 13.01680455 -8.5625 17.125 C-7.54513229 19.88642665 -7.20079259 20.80585371 -4.5625 22.125 C-2.68870395 22.19533769 -0.81248898 22.2093022 1.0625 22.1875 C2.06539062 22.17847656 3.06828125 22.16945312 4.1015625 22.16015625 C5.25785156 22.14275391 5.25785156 22.14275391 6.4375 22.125 C6.125 24.0625 6.125 24.0625 5.4375 26.125 C0.72178001 27.69690666 -3.11068499 27.62755135 -7.8125 26 C-11.23929683 23.66354761 -12.23122531 22.04486436 -13.5625 18.125 C-14.34277153 12.69561063 -13.52040742 8.83574144 -10.5625 4.125 C-7.55372541 0.48939737 -4.5834904 -0.01510211 0 0 Z" fill="#000000" transform="translate(77.5625,108.875)"/>
<path d="M0 0 C2.3125 1 2.3125 1 4 3 C4.63443694 5.70302123 4.81703246 8.20974508 5 11 C0.71 11 -3.58 11 -8 11 C-6.52052066 15.11831095 -6.52052066 15.11831095 -3.6875 15.8125 C-0.90291857 16.00677312 1.30622291 15.69268554 4 15 C3.625 16.9375 3.625 16.9375 3 19 C-0.10048928 20.55024464 -2.57894218 20.28992015 -6 20 C-8.93063678 18.47097212 -10.53477392 17.34973 -11.6328125 14.1640625 C-12.50670217 9.31118581 -11.78836843 6.18255265 -9 2 C-5.51131349 -0.32579101 -4.10281481 -0.41865457 0 0 Z M-4 3 C-6.29215045 4.79191032 -6.29215045 4.79191032 -8 7 C-8 7.33 -8 7.66 -8 8 C-5.03 8 -2.06 8 1 8 C0.67 6.68 0.34 5.36 0 4 C-1.78141747 3.13641377 -1.78141747 3.13641377 -4 3 Z" fill="#000000" transform="translate(284,116)"/>
<path d="M0 0 C3.41620723 2.30824813 3.93366666 3.6683333 4.75 7.75 C4.87375 9.35875 4.87375 9.35875 5 11 C0.71 11 -3.58 11 -8 11 C-6.51813453 15.13292639 -6.51813453 15.13292639 -3.625 15.8125 C-1.10421049 15.99255639 0.6203624 15.79321253 3 15 C3 16.32 3 17.64 3 19 C1.58566794 19.2236337 0.16832382 19.42826476 -1.25 19.625 C-2.43335938 19.79902344 -2.43335938 19.79902344 -3.640625 19.9765625 C-6.3575533 20.00355185 -7.72313758 19.44301149 -10 18 C-12.54594764 14.56297069 -12.36399464 11.14953888 -12 7 C-9.34794779 1.31703097 -6.31869524 -0.77371778 0 0 Z M-4 3 C-5.35432675 4.31200404 -6.68733482 5.64631404 -8 7 C-8 7.33 -8 7.66 -8 8 C-5.03 8 -2.06 8 1 8 C0.34 6.68 -0.32 5.36 -1 4 C-1.99 3.67 -2.98 3.34 -4 3 Z" fill="#000000" transform="translate(209,116)"/>
<path d="M0 0 C1.4540625 0.0309375 1.4540625 0.0309375 2.9375 0.0625 C2.9375 1.0525 2.9375 2.0425 2.9375 3.0625 C1.6175 3.0625 0.2975 3.0625 -1.0625 3.0625 C-1.0625 4.0525 -1.0625 5.0425 -1.0625 6.0625 C0.9175 6.0625 2.8975 6.0625 4.9375 6.0625 C4.9375 5.0725 4.9375 4.0825 4.9375 3.0625 C5.9275 2.7325 6.9175 2.4025 7.9375 2.0625 C7.9375 3.3825 7.9375 4.7025 7.9375 6.0625 C8.9275 6.0625 9.9175 6.0625 10.9375 6.0625 C10.9375 7.0525 10.9375 8.0425 10.9375 9.0625 C9.9475 9.0625 8.9575 9.0625 7.9375 9.0625 C8.2675 12.0325 8.5975 15.0025 8.9375 18.0625 C9.5975 18.0625 10.2575 18.0625 10.9375 18.0625 C10.6075 19.3825 10.2775 20.7025 9.9375 22.0625 C7.4625 21.0725 7.4625 21.0725 4.9375 20.0625 C4.9375 16.4325 4.9375 12.8025 4.9375 9.0625 C2.9575 9.0625 0.9775 9.0625 -1.0625 9.0625 C-1.0625 13.0225 -1.0625 16.9825 -1.0625 21.0625 C-2.0525 21.0625 -3.0425 21.0625 -4.0625 21.0625 C-4.0625 17.1025 -4.0625 13.1425 -4.0625 9.0625 C-5.0525 9.0625 -6.0425 9.0625 -7.0625 9.0625 C-7.0625 8.0725 -7.0625 7.0825 -7.0625 6.0625 C-6.0725 6.0625 -5.0825 6.0625 -4.0625 6.0625 C-4.083125 5.258125 -4.10375 4.45375 -4.125 3.625 C-4.03366838 -0.11959638 -3.80090148 0.07756942 0 0 Z" fill="#000000" transform="translate(310.0625,6.9375)"/>
<path d="M0 0 C4.29 0 8.58 0 13 0 C13 1.32 13 2.64 13 4 C10.03 4 7.06 4 4 4 C4 6.64 4 9.28 4 12 C6.97 12 9.94 12 13 12 C13 12.99 13 13.98 13 15 C10.03 15 7.06 15 4 15 C4 18.63 4 22.26 4 26 C2.68 26 1.36 26 0 26 C0 17.42 0 8.84 0 0 Z" fill="#000000" transform="translate(88,109)"/>
<path d="M0 0 C0.33 1.65 0.66 3.3 1 5 C-1.97 4.505 -1.97 4.505 -5 4 C-5.99 5.485 -5.99 5.485 -7 7 C-6.071875 7.28875 -5.14375 7.5775 -4.1875 7.875 C-1 9 -1 9 2 11 C2.4375 13.9375 2.4375 13.9375 2 17 C0.4375 18.875 0.4375 18.875 -2 20 C-8.15151515 20.42424242 -8.15151515 20.42424242 -11 19 C-11 17.68 -11 16.36 -11 15 C-8.03 15.33 -5.06 15.66 -2 16 C-2.70444647 12.71817863 -2.70444647 12.71817863 -5.9375 11.5 C-6.948125 11.005 -7.95875 10.51 -9 10 C-11 7 -11 7 -10.875 4.4375 C-10 2 -10 2 -8.3125 0.6875 C-5.46515091 -0.15900919 -2.95436294 -0.13428922 0 0 Z" fill="#000000" transform="translate(302,116)"/>
<path d="M0 0 C0.66 0.33 1.32 0.66 2 1 C1.60200195 1.44883545 1.20400391 1.8976709 0.79394531 2.36010742 C-5.53549456 9.9512925 -9.75679106 18.57275011 -14.25 27.3125 C-15.45298962 29.63768503 -16.65858847 31.96145119 -17.86810303 34.2832489 C-18.61471936 35.717917 -19.3573307 37.15467884 -20.09527588 38.59382629 C-21.83391203 41.94875915 -23.60484341 45.06962594 -26 48 C-23.15285375 30.28442335 -12.82584654 12.34934451 0 0 Z" fill="#2D8BBD" transform="translate(41,17)"/>
<path d="M0 0 C0.33 1.65 0.66 3.3 1 5 C0.236875 4.814375 -0.52625 4.62875 -1.3125 4.4375 C-4.08967375 3.77180827 -4.08967375 3.77180827 -7 5 C-8.4783226 7.95664519 -8.06032783 10.74229737 -8 14 C-4.48966871 15.68630119 -4.48966871 15.68630119 -0.6875 15.625 C-0.130625 15.41875 0.42625 15.2125 1 15 C1 16.32 1 17.64 1 19 C-1.7798816 20.3899408 -3.9186326 20.18488204 -7 20 C-10.34265205 18.79293121 -10.94704566 18.07943151 -13 15 C-13.73965025 10.40728797 -13.60961194 6.97537911 -11.125 3 C-7.46500941 -0.44469702 -4.9300282 -0.09129682 0 0 Z" fill="#000000" transform="translate(269,116)"/>
<path d="M0 0 C1.65 0 3.3 0 5 0 C5.50559908 1.43554025 6.0042749 2.8735202 6.5 4.3125 C6.7784375 5.11300781 7.056875 5.91351563 7.34375 6.73828125 C8 9 8 9 8 12 C8.66 12 9.32 12 10 12 C10.99 8.37 11.98 4.74 13 1 C14.65 0.67 16.3 0.34 18 0 C17.02216461 2.62550296 16.0427937 5.25041505 15.0625 7.875 C14.78470703 8.62136719 14.50691406 9.36773437 14.22070312 10.13671875 C12.11328125 15.7734375 12.11328125 15.7734375 11 18 C8.70703125 18.03515625 8.70703125 18.03515625 6 17 C4.43242596 14.30521698 3.59222801 11.40949569 2.6875 8.4375 C2.42388672 7.63119141 2.16027344 6.82488281 1.88867188 5.99414062 C1.24037326 4.00209579 0.61771598 2.00173941 0 0 Z" fill="#000000" transform="translate(228,117)"/>
<path d="M0 0 C2.375 1.5625 2.375 1.5625 4 4 C4.45746657 7.65973254 4.46134558 10.02604821 2.875 13.375 C0.25065402 15.64943318 -1.54847562 15.93096951 -5 16 C-7.875 15.1875 -7.875 15.1875 -10 13 C-10.66054533 9.58239591 -10.80936877 6.39376699 -10 3 C-6.77763733 -0.11336097 -4.44442325 -0.64814506 0 0 Z M-5 3 C-7.34973818 4.89755144 -7.34973818 4.89755144 -7.125 8.125 C-7.08375 9.07375 -7.0425 10.0225 -7 11 C-4.525 11.99 -4.525 11.99 -2 13 C-0.31318262 11.89958081 -0.31318262 11.89958081 1 10 C0.76716851 6.85078091 0.76716851 6.85078091 0 4 C-2.39719432 3.32041397 -2.39719432 3.32041397 -5 3 Z" fill="#000000" transform="translate(299,13)"/>
<path d="M0 0 C2.375 0.9375 2.375 0.9375 4 3 C4.50786669 6.06431924 4.61329775 8.95008689 4 12 C2.27559554 14.15916933 1.23825639 14.91222133 -1.375 15.875 C-4.77139406 16.03673305 -6.28560423 14.96039694 -9 13 C-10 12 -10 12 -10.3125 8.1875 C-10.26301716 5.12506212 -10.09927904 4.15273699 -8.375 1.5 C-5.29889257 -0.44280469 -3.58110811 -0.52224493 0 0 Z M-5.75 4.1875 C-7.25148889 5.98483756 -7.25148889 5.98483756 -6.9375 8.5625 C-6.22094782 11.14661024 -6.22094782 11.14661024 -3.9375 12.3125 C-3.298125 12.539375 -2.65875 12.76625 -2 13 C-1.01 12.34 -0.02 11.68 1 11 C1.41666667 8 1.41666667 8 1 5 C0.34 4.34 -0.32 3.68 -1 3 C-3.9387397 2.71924929 -3.9387397 2.71924929 -5.75 4.1875 Z" fill="#000000" transform="translate(272,13)"/>
<path d="M0 0 C9.24 0 18.48 0 28 0 C25.31765469 1.7882302 23.04485923 2.85190382 20.0625 4 C16.95380744 5.20033981 13.95780631 6.46276424 11 8 C10.29875 7.401875 9.5975 6.80375 8.875 6.1875 C6.02969023 4.02259039 3.23367233 2.50403364 0 1 C0 0.67 0 0.34 0 0 Z" fill="#72BDD2" transform="translate(60,8)"/>
<path d="M0 0 C1.35935719 4.07807158 -0.12072973 6.59137761 -1.6875 10.375 C-2.07325195 11.365 -2.07325195 11.365 -2.46679688 12.375 C-4.12683005 16.47002042 -6.03642434 19.65548542 -9 23 C-9.99 20.03 -10.98 17.06 -12 14 C-10.948125 12.989375 -9.89625 11.97875 -8.8125 10.9375 C-5.39807051 7.53695031 -2.68859779 3.99216036 0 0 Z" fill="#0486BA" transform="translate(143,55)"/>
<path d="M0 0 C1.32 0 2.64 0 4 0 C4 1.32 4 2.64 4 4 C2.35 4.66 0.7 5.32 -1 6 C-1.33 10.29 -1.66 14.58 -2 19 C-3.32 19 -4.64 19 -6 19 C-6 13.06 -6 7.12 -6 1 C-4.35 1 -2.7 1 -1 1 C-0.67 0.67 -0.34 0.34 0 0 Z" fill="#000000" transform="translate(223,116)"/>
<path d="M0 0 C0.33 1.32 0.66 2.64 1 4 C-0.65 4 -2.3 4 -4 4 C-3.175 4.53625 -2.35 5.0725 -1.5 5.625 C1 8 1 8 1.3125 11.25 C1.1578125 12.61125 1.1578125 12.61125 1 14 C-1.57213134 15.61949011 -2.67669159 16.04408751 -5.75 15.625 C-6.86375 15.315625 -6.86375 15.315625 -8 15 C-7.67 13.68 -7.34 12.36 -7 11 C-5.02 11.495 -5.02 11.495 -3 12 C-2.67 11.34 -2.34 10.68 -2 10 C-2.804375 9.690625 -3.60875 9.38125 -4.4375 9.0625 C-7 8 -7 8 -8 7 C-8.25 4.5625 -8.25 4.5625 -8 2 C-4.77208445 -0.1519437 -3.71599191 -0.20086443 0 0 Z" fill="#000000" transform="translate(286,13)"/>
<path d="M0 0 C0 1.32 0 2.64 0 4 C-1.65 4 -3.3 4 -5 4 C-5.66 5.65 -6.32 7.3 -7 9 C-5.77190909 10.64555699 -5.77190909 10.64555699 -4 12 C-1.83700789 11.77242269 -1.83700789 11.77242269 0 11 C0 12.32 0 13.64 0 15 C-3.28750944 16.03321725 -4.57797876 16.20141923 -7.75 14.6875 C-10 13 -10 13 -11 11 C-11.54035146 6.94736402 -11.34199395 5.46269769 -8.875 2.125 C-5.56501812 -0.32150834 -4.01686987 -0.46707789 0 0 Z" fill="#000000" transform="translate(251,13)"/>
<path d="M0 0 C0.33 0.99 0.66 1.98 1 3 C-4.35714286 9.29464286 -4.35714286 9.29464286 -9.25 9.8125 C-10.4875 9.874375 -11.725 9.93625 -13 10 C-13.99 10.495 -13.99 10.495 -15 11 C-13.62279122 6.98314106 -12.23202293 3.81766101 -9 1 C-5.90048927 0.87687609 -3.0239894 1.3473869 0 2 C0 1.34 0 0.68 0 0 Z" fill="#1997C1" transform="translate(55,43)"/>
<path d="M0 0 C-1.25130496 2.50260992 -2.17358316 2.68722294 -4.6875 3.8125 C-8.70220937 5.7294333 -11.70051391 8.03046251 -15 11 C-16.32 10.34 -17.64 9.68 -19 9 C-19 8.01 -19 7.02 -19 6 C-17.58671871 5.18162558 -16.16921654 4.37053781 -14.75 3.5625 C-13.56664063 2.88380859 -13.56664063 2.88380859 -12.359375 2.19140625 C-8.15610906 0.06889613 -4.68665759 -0.10651495 0 0 Z" fill="#0B3F80" transform="translate(91,9)"/>
<path d="M0 0 C1.32 0 2.64 0 4 0 C4 5.94 4 11.88 4 18 C2.68 18 1.36 18 0 18 C0 12.06 0 6.12 0 0 Z" fill="#000000" transform="translate(248,117)"/>
<path d="M0 0 C0.66 0 1.32 0 2 0 C1.34580901 5.06998019 -0.8546409 9.41990777 -3 14 C-5.31 14 -7.62 14 -10 14 C-8.43988817 10.5222507 -6.36827674 7.72775973 -4 4.75 C-3.29875 3.85796875 -2.5975 2.9659375 -1.875 2.046875 C-1.25625 1.37140625 -0.6375 0.6959375 0 0 Z" fill="#56ADCC" transform="translate(60,25)"/>
<path d="M0 0 C1.010625 0.0825 2.02125 0.165 3.0625 0.25 C5.0625 3.25 5.0625 3.25 4.6875 5.9375 C4.48125 6.700625 4.275 7.46375 4.0625 8.25 C1.1875 8.875 1.1875 8.875 -1.9375 9.25 C-3.9375 7.25 -3.9375 7.25 -4.125 4.1875 C-3.87878357 0.33010924 -3.87878357 0.33010924 0 0 Z" fill="#000000" transform="translate(197.9375,76.75)"/>
<path d="M0 0 C2.64 0 5.28 0 8 0 C7.6875 1.9375 7.6875 1.9375 7 4 C6.01 4.33 5.02 4.66 4 5 C3.67 8.3 3.34 11.6 3 15 C2.01 15 1.02 15 0 15 C0 10.05 0 5.1 0 0 Z" fill="#000000" transform="translate(254,13)"/>
<path d="M0 0 C2.05078125 0.03255208 4.1015625 0.06510417 6.15234375 0.09765625 C6.15234375 1.41765625 6.15234375 2.73765625 6.15234375 4.09765625 C5.49234375 4.09765625 4.83234375 4.09765625 4.15234375 4.09765625 C4.15234375 4.75765625 4.15234375 5.41765625 4.15234375 6.09765625 C1.18234375 6.09765625 -1.78765625 6.09765625 -4.84765625 6.09765625 C-2.55432956 0.13500685 -2.55432956 0.13500685 0 0 Z" fill="#39A3C7" transform="translate(50.84765625,38.90234375)"/>
<path d="M0 0 C3 0.125 3 0.125 4 1.125 C4.04080783 3.12458364 4.04254356 5.12545254 4 7.125 C1.125 7.75 1.125 7.75 -2 8.125 C-4 6.125 -4 6.125 -4.1875 3.5625 C-3.91067812 -0.03618446 -3.67800108 0.15325004 0 0 Z M2 3.125 C3 5.125 3 5.125 3 5.125 Z" fill="#000000" transform="translate(326,10.875)"/>
<path d="M0 0 C0.99 0.33 1.98 0.66 3 1 C3.94921875 3.06640625 3.94921875 3.06640625 4.6875 5.5625 C4.93886719 6.38878906 5.19023438 7.21507812 5.44921875 8.06640625 C5.63097656 8.70449219 5.81273438 9.34257812 6 10 C4.02 10 2.04 10 0 10 C-0.66 7.03 -1.32 4.06 -2 1 C-1.34 0.67 -0.68 0.34 0 0 Z" fill="#299AC5" transform="translate(73,22)"/>
<path d="M0 0 C3.33333333 0 6.66666667 0 10 0 C10 1.98 10 3.96 10 6 C7.03 6 4.06 6 1 6 C0.67 4.02 0.34 2.04 0 0 Z" fill="#000000" transform="translate(161,79)"/>
<path d="M0 0 C0.99 0 1.98 0 3 0 C3 4.95 3 9.9 3 15 C2.01 15 1.02 15 0 15 C0 10.05 0 5.1 0 0 Z" fill="#000000" transform="translate(235,13)"/>
<path d="M0 0 C0 0.33 0 0.66 0 1 C-0.99580078 1.27263672 -0.99580078 1.27263672 -2.01171875 1.55078125 C-6.73453613 2.89523291 -10.92835339 4.14984737 -15 7 C-14.9375 5.1875 -14.9375 5.1875 -14 3 C-9.14886197 0.2833627 -5.63000273 -0.34469404 0 0 Z" fill="#0D8ABA" transform="translate(60,8)"/>
<path d="M0 0 C-0.33 1.32 -0.66 2.64 -1 4 C-2.65 4.33 -4.3 4.66 -6 5 C-6 3.68 -6 2.36 -6 1 C-3 0 -3 0 0 0 Z" fill="#74C1D4" transform="translate(78,9)"/>
<path d="M0 0 C4.62 0 9.24 0 14 0 C10.71536341 2.18975773 7.79303725 2.99806563 4 4 C4 3.01 4 2.02 4 1 C2.68 0.67 1.36 0.34 0 0 Z" fill="#50ADCB" transform="translate(74,8)"/>
<path d="M0 0 C1.65 0.33 3.3 0.66 5 1 C4.01 1.66 3.02 2.32 2 3 C2 3.66 2 4.32 2 5 C2.66 5.66 3.32 6.32 4 7 C3.01 7.33 2.02 7.66 1 8 C-0.42944945 5.64561267 -1.08661261 4.51967567 -0.625 1.75 C-0.41875 1.1725 -0.2125 0.595 0 0 Z" fill="#5FB8CF" transform="translate(70,8)"/>
<path d="M0 0 C0.66 0 1.32 0 2 0 C1.125 4.75 1.125 4.75 0 7 C-1.32 7 -2.64 7 -4 7 C-2.79618552 4.50638429 -1.54571278 2.31856917 0 0 Z" fill="#6EB6D0" transform="translate(60,25)"/>
<path d="M0 0 C2.0625 1.75 2.0625 1.75 4 4 C3.75 6.25 3.75 6.25 3 8 C2.34 8 1.68 8 1 8 C0.26919734 6.02253397 -0.39421747 4.01927511 -1 2 C-0.67 1.34 -0.34 0.68 0 0 Z" fill="#226599" transform="translate(70,15)"/>
<path d="M0 0 C0.99 0.33 1.98 0.66 3 1 C3 2.32 3 3.64 3 5 C1.68 4.67 0.36 4.34 -1 4 C-0.67 2.68 -0.34 1.36 0 0 Z" fill="#000000" transform="translate(249,108)"/>
<path d="M0 0 C0.99 0 1.98 0 3 0 C3 1.32 3 2.64 3 4 C1.68 3.67 0.36 3.34 -1 3 C-0.67 2.01 -0.34 1.02 0 0 Z" fill="#000000" transform="translate(235,7)"/>
</svg>